<svg xmlns="http://www.w3.org/2000/svg" xmlns:xlink="http://www.w3.org/1999/xlink" width="174.724" height="127.365" viewBox="0 0 174.724 127.365">
  <defs>
    <linearGradient id="linear-gradient" x1="-0.268" y1="0.695" x2="2.461" y2="0.034" gradientUnits="objectBoundingBox">
      <stop offset="0" stop-color="#ffcd41"/>
      <stop offset="0.479" stop-color="#c06286"/>
      <stop offset="1" stop-color="#ffcd41"/>
    </linearGradient>
    <linearGradient id="linear-gradient-2" x1="-0.14" y1="0.518" x2="0.651" y2="0.493" xlink:href="#linear-gradient"/>
    <linearGradient id="linear-gradient-3" x1="0" y1="0.5" x2="1" y2="0.5" xlink:href="#linear-gradient"/>
    <linearGradient id="linear-gradient-4" x1="-0.366" y1="0.523" x2="4.391" y2="0.384" xlink:href="#linear-gradient"/>
  </defs>
  <g id="Group_205" data-name="Group 205" transform="translate(-309.96 -389.636)">
    <g id="Group_203" data-name="Group 203">
      <path id="Path_2550" data-name="Path 2550" d="M410.239,500.958a1.771,1.771,0,0,1-1.111-.37,4.843,4.843,0,0,1-1.1-1.6,6.768,6.768,0,0,0-.678-1.129c-.551-.666-.77-1.673-.182-2.2a2.894,2.894,0,0,0,.6-1.441c.118-.6.2-1.033.935-1.221a9.222,9.222,0,0,1,2.144-.344,2.261,2.261,0,0,1,1.728.723,5.64,5.64,0,0,0,1.467.972,1.764,1.764,0,0,1,.651.81,3.409,3.409,0,0,0,.755,1.027,2.385,2.385,0,0,1,.342,2.619,2.972,2.972,0,0,1-2.615,2.138h0a2.785,2.785,0,0,1-.933-.171,1.032,1.032,0,0,0-.35-.055,3.54,3.54,0,0,0-.73.111A4.239,4.239,0,0,1,410.239,500.958Z" fill="#fff"/>
      <path id="Path_2551" data-name="Path 2551" d="M415.559,496.047c-.679-.561-.832-1.584-1.446-1.861-2.181-.984-1.5-2.366-5.455-1.361-1.433.368-.722,1.649-1.609,2.7a1.825,1.825,0,0,0,.164,2.448c.575.7,1.023,2.164,1.81,2.755,1.227.919,2.435-.051,3.159.2C415.4,502.089,417.215,497.412,415.559,496.047Zm-.312,3.02c-.032-.218.471-1.093-1.23-1-1.051.076-.395-.669-1.285-.89.167-.32.674-.783.552-1.191-.133-.456-1.067-.555-1.64-.443-.334.066-.856.182-.974.083-.281-.23.439-1.243-1.545-1.2,0-.252.338-.991.348-1.332,3.114-.581,2.036.4,4.458,1.487.4.183.622,1.2,1.348,1.8a2.442,2.442,0,0,1,.246,2.442A1.609,1.609,0,0,1,415.247,499.067Z" fill="url(#linear-gradient)"/>
    </g>
    <g id="Group_204" data-name="Group 204">
      <path id="Path_2552" data-name="Path 2552" d="M463.584,516.733c-.343,0-.708-.013-1.1-.042-1.066-.079-2.055-.121-3.011-.161-1.347-.056-2.559-.107-3.628-.243-2.491-.317-3.919-1.091-4.93-2.673-1.957-3.071-4.858-4.026-8.532-5.235l-.6-.2c-3.775-1.249-8.205-5.351-10.921-8.863a9.134,9.134,0,0,1-1.62-3.659,5.9,5.9,0,0,0-3.112-4.4,30.516,30.516,0,0,1-4.3-2.977,67.068,67.068,0,0,0-5.64-4.061,63.41,63.41,0,0,0-7.346-4.15,24.863,24.863,0,0,1-3.606-2.023c1.944.639,8.238,2.9,11.553,4.039l.243-.468c-4.135-2.994-14.074-10.118-17.035-11.6,1.733.725,10.271,4.622,15.144,6.941l.283-.447c-5-4.091-16.95-13.84-19.886-16.017l5.441,2.078.257-.462c-6.23-4.636-21.1-15.726-24.626-18.554a9.2,9.2,0,0,1-3.163-4.662,15.371,15.371,0,0,0-4.984-7.122,60.618,60.618,0,0,1-6.567-6.957c-2.131-2.542-3.809-4.543-6.061-5.492-3.974-1.677-7.132-4.278-7.04-5.8.014-.223.036-.415.055-.582.131-1.137,0-1.39-1.986-2.024-2.49-.8-5.929-2.866-6.943-4.177a19.567,19.567,0,0,0-2.248-2.115,19.331,19.331,0,0,1-3.676-3.717,2.237,2.237,0,0,0-1.537-1.131c-.489-.142-.783-.227-.885-.979a2.69,2.69,0,0,0-1.009-1.749,8.96,8.96,0,0,1-1.227-1.461c-.642-.91-1.44-2.044-5.674-5.64,7.1,5.924,8.243,6.279,10.136,6.865a27,27,0,0,1,6.53,3.067,6.385,6.385,0,0,1,1.687,1.735,10.729,10.729,0,0,0,1.82,2l.575.471c1.666,1.373,4.766,3.93,6.277,3.93a1.239,1.239,0,0,0,.225-.02,4.038,4.038,0,0,1,.716-.057,9.441,9.441,0,0,1,4.7,1.447c.632.452,1.954,1.645,3.353,2.908,1.309,1.182,2.662,2.4,3.719,3.267a12.409,12.409,0,0,1,2.306,2.929c1,1.564,1.95,3.041,3.45,3.522a12.8,12.8,0,0,0,3.793.9,6.674,6.674,0,0,0,1.167-.118,3.414,3.414,0,0,0,2.439-2.486c.191-.908-.02-2.284-2.1-3.681a20.627,20.627,0,0,1-4.57-4.519c-1.392-1.718-2.707-3.34-4.724-4.275.163,0,3.473,1.312,7.132,5.135a28.325,28.325,0,0,0,4.834,3.959,23.758,23.758,0,0,1,5.053,4.317c2.587,2.995,5.517,3.46,8.1,3.871a21.94,21.94,0,0,1,2.179.417c2.9.768,4.972,3.452,7.17,6.293,2.089,2.7,5.1,4.9,6.708,4.9a1.526,1.526,0,0,0,.3-.028h0c.779,0,2.221,1.578,3.616,3.105,2,2.186,4.262,4.664,6.209,4.912,1.638.209,3.078,2.021,4.6,3.94,1.83,2.3,3.721,4.681,6.291,5.009.944.12,1.829.221,2.66.316,3.336.379,5.746.653,7.54,1.684a2.934,2.934,0,0,0,1.561.393c.24,0,.489-.017.756-.036.3-.021.587-.043.9-.043,1.174,0,2.686.277,5.008,2.331,1.013.9,1.794,1.625,2.423,2.213,1.918,1.8,2.431,2.274,3.911,2.274.192,0,.4-.008.633-.022h0c1.5,0,4.158,2.053,6.731,4.04l.312.241c2.274,1.756,4.421,3.414,5.6,3.5,3.4.3,5.215,2.023,5.7,5.425.59,4.148,1.4,5.146,3.383,5.876,3.348.671,3.818,1.11,4.847,2.07.619.574,1.068.954,1.412,1.244a3.619,3.619,0,0,1,1.427,1.918c.152.375.342.8.548,1.251,1.083,2.4,2.566,5.679,1.092,8.082a2.53,2.53,0,0,0-.142,2.166,2.732,2.732,0,0,1-.608,2.915c-.444.532-.831.97-1.189,1.374a21.444,21.444,0,0,0-3.375,4.8c-.276.506-.5.955-.7,1.357-1.155,2.3-1.527,3.041-5.08,4.089a12.65,12.65,0,0,0-3.636,1.808,8.7,8.7,0,0,1-5.481,1.807Z" fill="#fff"/>
      <path id="Path_2553" data-name="Path 2553" d="M466.378,509.547c-6.013-1.183-7.04,3.6-11.283-.055s-7.451-5.66-6.7-7.712,1.862-1.563-1.107-3.812-3.44-1.27-3.073-4.687-2.448-2.528.508-5.614,2.209-3.736,7.03-2.982,2.19-2.145,6.025-.894c4.012-.319,3.833-1.819,5.989-.621a73.569,73.569,0,0,0,7.365,3.8c5.734,1.748,6.732,11.3,2.171,15.561S472.391,510.729,466.378,509.547Z" fill="#fff"/>
      <path id="Path_2554" data-name="Path 2554" d="M484.027,496.554c1.837-3-.664-7.211-1.619-9.573-.65-1.611-.8-1.3-2.9-3.255-1.066-1-1.554-1.452-4.938-2.127-1.9-.7-2.637-1.627-3.211-5.664-.5-3.492-2.425-5.343-5.945-5.653-1.143-.081-3.464-1.907-5.73-3.656-2.809-2.169-5.468-4.227-6.95-4.123-1.886.119-2.212-.185-4.337-2.173-.634-.592-1.417-1.324-2.437-2.226-2.919-2.582-4.672-2.456-6.089-2.355a3.421,3.421,0,0,1-2.178-.32c-2.3-1.323-5.57-1.43-10.3-2.034-2.464-.314-4.321-2.651-6.117-4.91-1.559-1.963-3.032-3.816-4.778-4.039-3.4-.433-8.132-8.362-9.915-8.014-1.388.28-4.6-2-6.745-4.767-2.227-2.879-4.33-5.6-7.314-6.389a22.317,22.317,0,0,0-2.2-.423c-2.54-.4-5.42-.86-7.944-3.782-3.416-3.955-6.236-4.46-9.9-8.286a22.318,22.318,0,0,0-7.2-5.254.3.3,0,0,0-.232.544c3.745,1.736,5.016,5.931,9.257,8.774,1.553,1.041,2.242,2.218,1.992,3.406a3.175,3.175,0,0,1-2.225,2.279c-1.55.276-2.24.054-4.831-.774-2.445-.783-3.466-4.6-5.67-6.4s-5.859-5.309-7.085-6.186a9.071,9.071,0,0,0-5.618-1.435c-1.5.275-5.558-3.279-6.863-4.327-1.569-1.257-2.187-2.959-3.538-3.754-9.561-5.62-4.987-.142-16.569-9.933l-.022-.017a.3.3,0,0,0-.382.452c6.281,5.334,4.911,5.154,6.886,7.088a2.416,2.416,0,0,1,.932,1.594c.234,1.738,1.572.653,2.454,2.205,1.048,1.845,4.969,4.6,5.945,5.864,1.039,1.343,4.542,3.457,7.073,4.267,2.284.732,1.837.854,1.746,2.337-.1,1.653,3.064,4.316,7.2,6.061,2.194.925,3.855,2.907,5.957,5.415a60.715,60.715,0,0,0,6.6,6.988,15.137,15.137,0,0,1,4.911,7.016,9.428,9.428,0,0,0,3.246,4.776c3.633,2.916,19.3,14.591,24.634,18.561l-5.413-2.13a.3.3,0,0,0-.285.514c2.952,2.188,15.1,12.1,19.877,16.009-5.3-2.523-15.009-6.944-15.123-7a.291.291,0,0,0-.389.142.3.3,0,0,0,.134.392c2.966,1.482,13.111,8.762,17,11.576-3.755-1.287-11.428-4.055-11.522-4.089a.3.3,0,0,0-.273.519,25.144,25.144,0,0,0,3.643,2.045,63.137,63.137,0,0,1,7.318,4.134,66.7,66.7,0,0,1,5.621,4.047,30.813,30.813,0,0,0,4.337,3,5.612,5.612,0,0,1,2.986,4.229,9.346,9.346,0,0,0,1.669,3.761c2.74,3.544,7.22,7.686,11.047,8.953l.6.2c3.624,1.192,6.486,2.134,8.394,5.126,1.183,1.852,2.893,2.511,5.12,2.794,1.076.138,2.273.188,3.588.242.973.041,1.979.083,3.066.164a9.152,9.152,0,0,0,6.745-1.808,12.422,12.422,0,0,1,3.565-1.775c3.664-1.081,4.08-1.91,5.192-4.124.213-.425.453-.9.751-1.451a21.2,21.2,0,0,1,3.34-4.753c.36-.406.749-.846,1.2-1.38C485.212,499.325,483.021,498.2,484.027,496.554Zm-17.649,12.993c-6.013-1.183-7.04,3.6-11.283-.055s-7.451-5.66-6.7-7.712,1.862-1.563-1.107-3.812-3.44-1.27-3.073-4.687-2.448-2.528.508-5.614,2.209-3.736,7.03-2.982,2.19-2.145,6.025-.894c4.012-.319,3.833-1.819,5.989-.621a73.569,73.569,0,0,0,7.365,3.8c5.734,1.748,6.732,11.3,2.171,15.561S472.391,510.729,466.378,509.547Zm-35.087-26.926c-.359.142-.552-.065-.8-.313s-.782-.964.053-.9C431.331,481.462,431.65,482.479,431.291,482.621Zm.235-2.785c-.939-1.214-12.431-10.936-14.961-12.154S398.181,453.5,398.181,453.5s12.179,9.014,17.044,11.425-1.154-3.43-3.07-5.564c-1.518-1.692-14-11.4-19.12-15.358a14.02,14.02,0,0,1-2.181-1.684s.842.648,2.181,1.684c4.808,3.244,15.257,9,15.257,9-1.356-1.068-23.924-20.658-23.924-20.658s20.754,15.877,26.421,20.579,2.511-.973,5.15.956,4.459,3.254,11.459,8.424,6.67-.044,9.74.845,2.8,4.536,5.094,8.409,10.786,3.564,17.19,7.167c-1.26-.261-5.39,1.7-8.472.908a11.493,11.493,0,0,0-4.669-.252,10.629,10.629,0,0,1-3.157-1.953,5.6,5.6,0,0,0-1.5-1.018,60.06,60.06,0,0,1-6.393-4.516c-.178-.151-.338-.281-.474-.384a.3.3,0,0,0-.407.423c.033.041.243.215.571.474,1.047.894,2.747,2.52,4.4,4.1,2.32,2.218,3.84,3.656,4.5,4.129-.512.433-1.205,1-1.964,1.7a7.309,7.309,0,0,0-1.675-.878c-3.544-1.333-5.631-4.493-7.146-5.139-1.258-.537-7-5.547-8.959-7.318-.256-.251-.485-.465-.68-.636a.3.3,0,0,0-.436.395l.048.046c2.575,2.261,11.731,12.962,13.225,13.928.883.57,1.779,2.222,2.978,3.183-.643,2.665.231,6.723.231,6.723s-1.779-5.548-4.028-6.631S432.466,481.05,431.526,479.836Zm-2.676.593c-.74.292-1.135-.133-1.64-.644s-1.61-1.984.108-1.858C428.932,478.044,429.59,480.137,428.85,480.429Zm-52.033-46.48c-1.418.242-2.213-1.567-3.094-2.059-.267-.149-8.141-7.521-8.153-7.536.167.129,4.9,3.9,5.921,4.261.931.327,2.075,2.018,4.332,2.7S378.234,433.707,376.817,433.949ZM380.429,428c.633.046.569,1.066-.027.462C380.276,428.337,380,427.971,380.429,428Zm1.6,1.693c.607.044.855.832.577.942s-.428-.05-.618-.243S381.38,429.648,382.027,429.7ZM420.71,475.99c-1.4.3-2.279-1.468-3.181-1.921-.842-.422-6.021-5.267-8.081-6.875-.228-.165-.378-.277-.395-.3.113.079.247.18.395.3a49.721,49.721,0,0,0,5.707,3.7c.945.286,2.163,1.926,4.447,2.51S422.116,475.686,420.71,475.99Zm-18.085-34.163A49.914,49.914,0,0,0,408,446c.917.365,1.99,2.1,4.216,2.881s2.31,2.487.884,2.67-2.146-1.658-3.006-2.186c-.8-.492-5.551-5.763-7.466-7.54-.212-.184-.352-.308-.367-.328C402.364,441.588,402.489,441.7,402.625,441.827ZM419.6,453.194c-.184.073-.283-.033-.408-.16s-.4-.493.027-.462C419.623,452.6,419.787,453.122,419.6,453.194Zm7.059,4.7c.945.286,2.163,1.925,4.447,2.51s2.514,2.281,1.108,2.585-2.279-1.469-3.181-1.921c-.273-.137-8.463-7.157-8.476-7.17C420.673,453.973,425.63,457.577,426.662,457.89Zm20.07,12.243c.613.374,2.043,1.534.345,1.83-1.594.277-3.887-2.321-3.24-2.783S446.118,469.76,446.732,470.133Zm-37-35.692c.283-.288.679.192,1.113.567,2.065,1.648,8.1,6.29,9.394,6.748,1.665.592,3.633,3.515,7.45,4.686,4.879,1.5,4.139,5.566.813,5.142-2.147-.274-3.344-2.877-4.673-3.623-1.564-.879-11.266-10.91-14.067-13.08A.3.3,0,0,1,409.735,434.441Zm-18.61,26.732c-1.732.254-2.883-1.016-4.006-2.315-2.169-2.514.764,1.174-8.15-7.862-6.295-6.381-7.239-7.057-7.132-6.955a.3.3,0,0,1,.42-.413c12.081,9.767,9.22,6.575,12.091,9.092a14.753,14.753,0,0,0,5.22,3.3C393.814,457.418,393.843,460.775,391.125,461.173Zm-34.272-56.214c10.02,9.133,7.586,6.12,9.966,8.47a12.747,12.747,0,0,0,4.32,3.106c4.005,1.591,3.3,4.952.514,4.6-1.949-.249-2.887-2.749-3.983-3.486-1.293-.872-8.949-10.181-11.215-12.249A.3.3,0,0,1,356.853,404.959Zm95.5,81.961c-.2.771-2.12,1.023-2.83,1.131s-2.551.14-1.441-1.178C449.129,485.635,452.555,486.15,452.357,486.92Zm-3.329,5.046c.453.654.129,1.136-.253,1.744s-1.565,2.02-1.835.318C446.687,492.43,448.575,491.312,449.028,491.966Zm-41.636-59.954c.437-.145.633.083.886.358s.782,1.061-.181.976C407.192,433.265,406.955,432.157,407.392,432.012Zm-39.969,8.093c-.811.035-1.266-.973-.916-1.162s.574,0,.856.227S368.287,440.068,367.423,440.105Zm90.847,45.839c.113.784-1.108,1.583-1.554,1.893s-1.683.877-1.354-.691C455.671,485.674,458.156,485.159,458.27,485.944Z" fill="url(#linear-gradient-2)"/>
    </g>
    <path id="Path_2555" data-name="Path 2555" d="M409.835,411.515c-.052-.052-.166-.2.011-.191C410.107,411.343,410.081,411.764,409.835,411.515Zm.67.508c-.267-.019-.1.209-.016.289s.139.145.254.1S410.756,412.041,410.505,412.023Zm-1.6,5.459c-.117-.094-.209-.172-.354-.094s.044.494.378.479C409.291,417.852,409.026,417.575,408.91,417.482Zm6,1.275c-.931-.282-1.4-.98-1.788-1.115a23.454,23.454,0,0,1-2.443-1.759c.005.006,3.254,3.049,3.364,3.11.364.2.692.95,1.277.85S415.841,419.04,414.91,418.757Zm22.44,10.709c.7-.122.11-.6-.143-.755s-.927-.585-1.194-.394S436.692,429.58,437.35,429.466ZM421.821,427.5c-.061-.048-.116-.089-.163-.122C421.665,427.384,421.727,427.43,421.821,427.5Zm.266-7.357c.355.218.651.978,1.24.9s.554-.781-.365-1.1-1.361-1.038-1.739-1.189a20.326,20.326,0,0,1-2.217-1.723C419.8,417.763,421.755,419.938,422.087,420.141Zm9.131,5.62c.58-.126.485-.825-.458-1.067s-1.445-.918-1.835-1.036a23.541,23.541,0,0,1-2.518-1.649c0,.006,3.385,2.9,3.5,2.959C430.277,425.155,430.638,425.886,431.218,425.761Zm-5.206-4.04c.076-.03.008-.245-.157-.257s-.063.138-.011.19S425.936,421.751,426.012,421.721Zm-7.158-4.827c.006.008.064.06.152.135C418.949,416.977,418.9,416.931,418.854,416.894Zm7.158,13.167c-.943-.241-1.446-.918-1.835-1.036a20.428,20.428,0,0,1-2.356-1.527c.85.664,2.988,2.663,3.335,2.837.372.187.733.918,1.313.793S426.954,430.3,426.012,430.061Zm22.159,12.02c-1.883,1.761-.375,3.383-2.856,2.9s-2.9,1.487-4.656-.023-3.075-2.336-2.767-3.182.768-.646-.457-1.574-1.419-.524-1.268-1.934-1.01-1.043.21-2.317.911-1.541,2.9-1.23.9-.885,2.486-.369c1.656-.132,1.582-.751,2.472-.256a30.618,30.618,0,0,0,3.039,1.569C449.641,436.381,450.053,440.321,448.171,442.081Zm-10.016-4.36c-.187-.27-.966.191-.862.851.112.7.6.119.757-.132S438.342,437.991,438.155,437.721Zm1.374-2.083c.081-.318-1.333-.53-1.763-.019-.458.544.3.531.6.486S439.447,435.956,439.529,435.638Zm2.44-.4c-.047-.323-1.073-.111-1.2.5-.136.647.375.412.559.285S442.016,435.559,441.969,435.235Zm-7.821-3.9c-.682-.652-1.383-1.323-1.815-1.692-.136-.107-.222-.179-.236-.2a.122.122,0,0,1,.168-.175c.056.043.122.1.195.158A24.66,24.66,0,0,0,435.1,431.3a2.286,2.286,0,0,1,.619.42,4.4,4.4,0,0,0,1.3.806,4.741,4.741,0,0,1,1.927.1c1.272.327,2.976-.482,3.5-.375-2.643-1.486-6.148-1.359-7.094-2.957s-.835-3.1-2.1-3.47-1.131,1.785-4.019-.349S425.589,422.8,424.5,422s.213,1.546-2.125-.394-10.9-8.493-10.9-8.493,9.313,8.085,9.872,8.526c0,0-4.312-2.374-6.3-3.713,2.112,1.633,7.264,5.64,7.891,6.338.79.881,3.274,3.291,1.267,2.3a78.868,78.868,0,0,1-7.034-4.715s6.542,5.35,7.586,5.853a51.156,51.156,0,0,1,6.175,5.016c.387.5.676,2.1,1.6,2.544S434.2,438,434.2,438a7.826,7.826,0,0,1-.1-2.775c-.495-.4-.864-1.078-1.229-1.313-.616-.4-4.395-4.815-5.457-5.748l-.02-.019a.122.122,0,0,1,.18-.163c.08.071.175.159.28.263a35.69,35.69,0,0,0,3.7,3.019c.626.267,1.487,1.571,2.949,2.122a3,3,0,0,1,.692.362c.313-.29.6-.522.81-.7C435.733,432.848,435.106,432.255,434.148,431.339Zm-3.62,2.023c-.344-.025-.123.27-.021.373s.18.188.328.129S430.852,433.386,430.528,433.362Zm-1.332-1.435c-.709-.052-.253.556-.045.767s.372.386.677.266S429.862,431.975,429.2,431.927Zm-14.148-14-.9-.7A5.774,5.774,0,0,0,415.048,417.927Z" fill="url(#linear-gradient-3)"/>
    <path id="Path_2556" data-name="Path 2556" d="M310.832,419.556c-.034-.034-.108-.133.007-.125C311.011,419.444,310.994,419.72,310.832,419.556Zm.441.334c-.176-.012-.063.138-.011.19s.092.1.167.066S311.438,419.9,311.273,419.89Zm-1.049,3.588c-.076-.061-.137-.113-.232-.061s.028.324.248.315C310.475,423.722,310.3,423.539,310.224,423.478Zm3.944.838c-.612-.185-.922-.644-1.175-.733a15.487,15.487,0,0,1-1.606-1.155s2.139,2,2.211,2.044c.239.133.455.624.839.558S314.78,424.5,314.168,424.316Zm14.749,7.039c.46-.08.073-.4-.094-.5s-.609-.385-.785-.259S328.484,431.43,328.917,431.355Zm-10.207-1.294-.106-.08C318.608,429.986,318.649,430.017,318.71,430.061Zm.175-4.835c.233.143.428.643.815.593s.364-.513-.239-.724-.895-.682-1.144-.782a13.384,13.384,0,0,1-1.457-1.132C317.379,423.663,318.667,425.093,318.885,425.226Zm6,3.694c.382-.083.319-.543-.3-.7s-.95-.6-1.206-.681a15.517,15.517,0,0,1-1.655-1.084s2.224,1.908,2.3,1.945C324.268,428.521,324.505,429,324.886,428.92Zm-3.421-2.656c.05-.019.005-.161-.1-.169s-.042.091-.008.126S321.415,426.284,321.465,426.264Zm-4.7-3.172s.042.039.1.089C316.823,423.146,316.789,423.116,316.76,423.092Zm4.7,8.654c-.62-.158-.95-.6-1.206-.681a13.459,13.459,0,0,1-1.549-1c.559.437,1.964,1.751,2.192,1.865.245.123.482.6.863.521S322.084,431.9,321.465,431.746Zm14.564,7.9c-1.237,1.157-.246,2.223-1.877,1.9s-1.909.977-3.06-.015-2.021-1.535-1.819-2.092.505-.424-.3-1.034-.933-.344-.833-1.271-.664-.686.137-1.523.6-1.013,1.907-.808.594-.582,1.634-.243c1.088-.086,1.04-.493,1.625-.168a20.06,20.06,0,0,0,2,1.031C337,435.9,337.266,438.49,336.029,439.647Zm-6.583-2.866c-.123-.178-.635.125-.566.559.073.461.393.078.5-.086S329.569,436.958,329.446,436.781Zm.9-1.369c.054-.209-.876-.349-1.158-.013-.3.357.2.349.39.32S330.3,435.621,330.349,435.412Zm1.6-.265c-.031-.213-.705-.073-.789.326-.089.425.246.272.367.187S331.983,435.36,331.953,435.147Zm-5.14-2.561c-.449-.428-.91-.869-1.194-1.112-.089-.07-.146-.117-.155-.128a.08.08,0,0,1,.111-.115c.037.028.08.063.128.1a16.472,16.472,0,0,0,1.734,1.225,1.5,1.5,0,0,1,.408.276,2.888,2.888,0,0,0,.856.53,3.108,3.108,0,0,1,1.266.068c.836.215,1.956-.317,2.3-.246-1.737-.977-4.041-.894-4.662-1.944s-.549-2.04-1.382-2.281-.743,1.173-2.642-.229-2.392-1.762-3.108-2.285.14,1.016-1.4-.26-7.166-5.581-7.166-5.581,6.121,5.313,6.489,5.6c0,0-2.834-1.56-4.138-2.44,1.388,1.073,4.774,3.707,5.186,4.166.52.578,2.152,2.163.833,1.509a51.8,51.8,0,0,1-4.623-3.1s4.3,3.516,4.986,3.847a33.6,33.6,0,0,1,4.058,3.3c.255.33.445,1.379,1.055,1.673s1.092,1.8,1.092,1.8a5.128,5.128,0,0,1-.062-1.824c-.326-.261-.569-.709-.808-.864-.4-.262-2.889-3.164-3.587-3.777l-.013-.013a.08.08,0,0,1,.011-.106.081.081,0,0,1,.107,0c.053.047.115.1.184.173a23.394,23.394,0,0,0,2.43,1.984c.411.176.977,1.033,1.939,1.395a1.944,1.944,0,0,1,.454.238c.206-.191.394-.343.533-.461C327.854,433.578,327.442,433.188,326.813,432.586Zm-2.38,1.33c-.226-.016-.08.177-.014.245s.119.123.216.085S324.646,433.931,324.433,433.916Zm-.875-.944c-.467-.034-.167.366-.03.505s.244.254.445.174S323.995,433,323.558,432.972Zm-9.3-9.2-.592-.457A3.817,3.817,0,0,0,314.259,423.771Z" fill="url(#linear-gradient-4)"/>
  </g>
</svg>
