<svg xmlns="http://www.w3.org/2000/svg" xmlns:xlink="http://www.w3.org/1999/xlink" width="134.644" height="134.629" viewBox="0 0 134.644 134.629">
  <defs>
    <linearGradient id="linear-gradient" x1="-0.002" y1="0.5" x2="1.001" y2="0.5" gradientUnits="objectBoundingBox">
      <stop offset="0" stop-color="#653a84"/>
      <stop offset="1" stop-color="#7b4fa8"/>
    </linearGradient>
    <linearGradient id="linear-gradient-2" x1="0" y1="0.5" x2="1" y2="0.5" xlink:href="#linear-gradient"/>
    <linearGradient id="linear-gradient-3" x1="0" y1="0.5" x2="1" y2="0.5" xlink:href="#linear-gradient"/>
    <linearGradient id="linear-gradient-4" x1="0.001" y1="0.498" x2="0.997" y2="0.498" xlink:href="#linear-gradient"/>
    <linearGradient id="linear-gradient-5" x1="0" y1="0.499" x2="1" y2="0.499" xlink:href="#linear-gradient"/>
    <linearGradient id="linear-gradient-7" x1="-0.004" y1="0.498" x2="1.004" y2="0.498" xlink:href="#linear-gradient"/>
    <linearGradient id="linear-gradient-8" x1="0" y1="0.5" x2="1" y2="0.5" xlink:href="#linear-gradient"/>
    <linearGradient id="linear-gradient-9" x1="0.001" y1="0.499" x2="1" y2="0.499" xlink:href="#linear-gradient"/>
    <linearGradient id="linear-gradient-10" x1="-0.001" y1="0.5" x2="1.001" y2="0.5" xlink:href="#linear-gradient"/>
    <linearGradient id="linear-gradient-11" x1="0" y1="0.501" x2="1" y2="0.501" xlink:href="#linear-gradient"/>
    <linearGradient id="linear-gradient-12" x1="0" y1="0.5" x2="1" y2="0.5" xlink:href="#linear-gradient"/>
    <linearGradient id="linear-gradient-13" x1="0" y1="0.5" x2="1" y2="0.5" xlink:href="#linear-gradient"/>
    <linearGradient id="linear-gradient-14" x1="-0.001" y1="0.5" x2="1.001" y2="0.5" xlink:href="#linear-gradient"/>
    <linearGradient id="linear-gradient-15" x1="-0.001" y1="0.5" x2="1" y2="0.5" xlink:href="#linear-gradient"/>
    <linearGradient id="linear-gradient-16" x1="0" y1="0.5" x2="1" y2="0.5" xlink:href="#linear-gradient"/>
    <linearGradient id="linear-gradient-17" x1="-0.004" y1="0.501" x2="1.001" y2="0.501" xlink:href="#linear-gradient"/>
    <linearGradient id="linear-gradient-19" x1="0.002" y1="0.501" x2="0.999" y2="0.501" xlink:href="#linear-gradient"/>
    <linearGradient id="linear-gradient-20" x1="0" y1="0.5" x2="1" y2="0.5" xlink:href="#linear-gradient"/>
    <linearGradient id="linear-gradient-21" x1="-0.004" y1="0.498" x2="1" y2="0.498" xlink:href="#linear-gradient"/>
    <linearGradient id="linear-gradient-22" x1="0" y1="0.501" x2="1.001" y2="0.501" xlink:href="#linear-gradient"/>
    <linearGradient id="linear-gradient-24" x1="0" y1="0.5" x2="1" y2="0.5" xlink:href="#linear-gradient"/>
    <linearGradient id="linear-gradient-25" x1="-0.001" y1="0.5" x2="0.999" y2="0.5" xlink:href="#linear-gradient"/>
    <linearGradient id="linear-gradient-27" x1="0" y1="0.5" x2="1" y2="0.5" xlink:href="#linear-gradient"/>
    <linearGradient id="linear-gradient-29" x1="0" y1="0.5" x2="1" y2="0.5" xlink:href="#linear-gradient"/>
    <linearGradient id="linear-gradient-30" x1="0.001" y1="0.5" x2="1.001" y2="0.5" xlink:href="#linear-gradient"/>
    <linearGradient id="linear-gradient-31" x1="0" y1="0.5" x2="1" y2="0.5" xlink:href="#linear-gradient"/>
    <linearGradient id="linear-gradient-32" x1="0" y1="0.5" x2="1" y2="0.5" xlink:href="#linear-gradient"/>
    <linearGradient id="linear-gradient-33" x1="0" y1="0.5" x2="1" y2="0.5" xlink:href="#linear-gradient"/>
    <linearGradient id="linear-gradient-34" x1="-0.001" y1="0.498" x2="1" y2="0.498" xlink:href="#linear-gradient"/>
    <linearGradient id="linear-gradient-35" x1="-0.001" y1="0.497" x2="1" y2="0.497" xlink:href="#linear-gradient"/>
    <linearGradient id="linear-gradient-37" x1="0" y1="0.5" x2="1" y2="0.5" xlink:href="#linear-gradient"/>
    <linearGradient id="linear-gradient-38" x1="0" y1="0.501" x2="1" y2="0.501" xlink:href="#linear-gradient"/>
    <linearGradient id="linear-gradient-39" x1="0" y1="0.5" x2="0.999" y2="0.5" xlink:href="#linear-gradient"/>
    <linearGradient id="linear-gradient-40" x1="0" y1="0.5" x2="1" y2="0.5" xlink:href="#linear-gradient"/>
    <linearGradient id="linear-gradient-41" x1="0" y1="0.5" x2="1" y2="0.5" xlink:href="#linear-gradient"/>
    <linearGradient id="linear-gradient-43" x1="-0.001" y1="0.499" x2="1.001" y2="0.499" xlink:href="#linear-gradient"/>
    <linearGradient id="linear-gradient-44" x1="-0.001" y1="0.501" x2="0.997" y2="0.501" xlink:href="#linear-gradient"/>
    <linearGradient id="linear-gradient-45" x1="-0.002" y1="0.501" x2="1.002" y2="0.501" xlink:href="#linear-gradient"/>
    <linearGradient id="linear-gradient-47" x1="0" y1="0.5" x2="0.996" y2="0.5" xlink:href="#linear-gradient"/>
    <linearGradient id="linear-gradient-48" x1="-0.001" y1="0.5" x2="1" y2="0.5" xlink:href="#linear-gradient"/>
    <linearGradient id="linear-gradient-50" x1="-0.002" y1="0.499" x2="1.002" y2="0.499" xlink:href="#linear-gradient"/>
    <linearGradient id="linear-gradient-51" x1="-0.003" y1="0.499" x2="1.002" y2="0.499" xlink:href="#linear-gradient"/>
    <linearGradient id="linear-gradient-52" x1="0.001" y1="0.5" x2="1" y2="0.5" xlink:href="#linear-gradient"/>
    <linearGradient id="linear-gradient-54" x1="0.004" y1="0.502" x2="1.003" y2="0.502" xlink:href="#linear-gradient"/>
    <linearGradient id="linear-gradient-55" x1="0" y1="0.5" x2="1" y2="0.5" xlink:href="#linear-gradient"/>
    <linearGradient id="linear-gradient-56" x1="0" y1="0.499" x2="1" y2="0.499" xlink:href="#linear-gradient"/>
    <linearGradient id="linear-gradient-57" x1="0.001" y1="0.5" x2="1" y2="0.5" xlink:href="#linear-gradient"/>
    <linearGradient id="linear-gradient-58" x1="0.002" y1="0.504" x2="1.001" y2="0.504" xlink:href="#linear-gradient"/>
    <linearGradient id="linear-gradient-59" x1="-0.003" y1="0.501" x2="1.002" y2="0.501" xlink:href="#linear-gradient"/>
    <linearGradient id="linear-gradient-60" x1="0" y1="0.5" x2="1" y2="0.5" xlink:href="#linear-gradient"/>
    <linearGradient id="linear-gradient-62" x1="0" y1="0.501" x2="1.004" y2="0.501" xlink:href="#linear-gradient"/>
    <linearGradient id="linear-gradient-63" x1="-0.002" y1="0.501" x2="1.002" y2="0.501" xlink:href="#linear-gradient"/>
  </defs>
  <g id="Group_4" data-name="Group 4" transform="translate(-485.946 -3089.729)">
    <path id="Path_71" data-name="Path 71" d="M540.852,3192.633l.015-.006a1.979,1.979,0,0,0-.26-.566A1.555,1.555,0,0,1,540.852,3192.633Z" fill="url(#linear-gradient)"/>
    <path id="Path_72" data-name="Path 72" d="M549.964,3195.771c.89-.213,1.691-.612,2.544-.859.051-.265.1-.491.136-.718.005-.029-.027-.064-.051-.116l-.326.056a9.138,9.138,0,0,1-.94-1.289,2.813,2.813,0,0,0-.65-.717,1.764,1.764,0,0,1-.531-.92l-.435-.983a2.282,2.282,0,0,1-.442-1.558c.026-.337-.009-.68-.017-1.073a1.145,1.145,0,0,0,.25-.8,3.061,3.061,0,0,1,.108-.631c-.417-.069-.8-.146-1.186-.19a1.656,1.656,0,0,1-.8-.274c-.2-.143-.435-.249-.668-.381l-.457.4c-.206-.266-.4-.521-.6-.772a.387.387,0,0,1-.078-.45c.109-.195-.009-.5.29-.6l.11-.109.108-.11h0l-.14-.412c-.311-.048-.609-.087-.9-.142a1.269,1.269,0,0,1-.343-.141c-.233-.127-.461-.261-.7-.4l-.108.109-.109.11-.109.109-.11.109c.023.025.058.077.07.072a.682.682,0,0,1,.805.261,2.926,2.926,0,0,1-.388.82,7.41,7.41,0,0,0,2.258,2.131l.485-.18a2.337,2.337,0,0,1,.69.811.689.689,0,0,1,.115.354,6.824,6.824,0,0,0,.556,2.075,3.842,3.842,0,0,1,.323,1.079,8.672,8.672,0,0,0,.347,1.008,3.11,3.11,0,0,1,.309,1.39h0c.178.11.087.289.108.435h0l1.286,1.1c-.154.243-.307.459-.434.695S549.876,3195.387,549.964,3195.771Z" fill="url(#linear-gradient-2)"/>
    <path id="Path_73" data-name="Path 73" d="M543.757,3183.68a.267.267,0,0,0-.373-.06.259.259,0,0,0-.053.052c-.125.1-.229.253-.372.308a3.525,3.525,0,0,0-1.234.729c-.045.044-.134.04-.2.058h0v.541l2.618-1.223C544,3183.931,543.885,3183.8,543.757,3183.68Z" fill="url(#linear-gradient-3)"/>
    <path id="Path_74" data-name="Path 74" d="M555.058,3203.98h0l-.109.11Z" fill="url(#linear-gradient-4)"/>
    <path id="Path_75" data-name="Path 75" d="M508.414,3125.405a9.585,9.585,0,0,0-1.824-.018l-.005.012c0,.072.007.133.012.2A3.615,3.615,0,0,1,508.414,3125.405Z" fill="url(#linear-gradient-5)"/>
    <path id="Path_76" data-name="Path 76" d="M492.617,3186.077h0l.109-.109h0l.109-.109h0l.108-.109v-.109l.109-.109h0l.108-.11h.11l.108-.109v-.218l.11-.218.108-.109.218-.11h0V3184a3.393,3.393,0,0,0-.006-.428.788.788,0,0,0-.1-.227v-.109c-.035-.182.087-.4-.109-.546v-.218l.11-.218h0a.313.313,0,0,0,.218-.328h0l.109-.218h0q.189-.109,0-.218h0l-.109-.11h0c-.012-.24-.2-.373-.328-.545h0l-.109-.11v-.108l-.109-.219c-.036-.073-.073-.145-.109-.218v-.112c-.025-.148.07-.327-.11-.434-.009-.118.039-.255-.108-.327v-.11a3.785,3.785,0,0,1,.219-1.637h0l.109-.109h0l.109-.11.109-.108h0l.109-.11v-.218l.109-.219v-.108a.6.6,0,0,0,.218-.546v-.109l.108-.11v-.108l.11-.219c.147-.072.1-.209.108-.328v-.218c-.024-.148.071-.326-.108-.434h0l-.11-.109h0l-.218-.109a.311.311,0,0,0-.327-.218h0l-.11-.109h0l-.109-.109h-.109l-.655-.764-.109-.109-.109-.11a.791.791,0,0,1-.219-.654c.18-.11.087-.288.109-.434h0l.11-.218.109-.219h0l.109-.109.109-.11v-.109h.108v-.11l.218-.434.11-.218.218-.11h.108v-.108h.218c.118-.01.255.039.328-.109h.326a.8.8,0,0,1,.656.218h0l.218.11.109.108h.11a1.282,1.282,0,0,0,1.252-.081.269.269,0,0,0,.167-.246h0c.3-.087.3-.087.327-.435h0a1.1,1.1,0,0,0,.327-.868c.221-.18.522-.261.655-.547h0l.218-.108a.5.5,0,0,0,.329-.435h0c.036-.035.073-.072.108-.108h0c.18-.111.087-.289.11-.435l-.11-.109h0l-.109-.218-.109-.218h0l-.109-.11h0a.623.623,0,0,0-.655-.434h-.109c-.072-.147-.209-.1-.327-.109h0c-.072-.147-.21-.1-.328-.109h0a1.2,1.2,0,0,0-.307-.2,2.664,2.664,0,0,1-1.33-.9h0v-.328l.109-.109h0l.109-.109h0l.219-.109c.068-.019.157-.016.2-.058.276-.261.551-.522.806-.8a.639.639,0,0,0,.174-.384c0-.348.194-.695.021-1.051a.519.519,0,0,1,0-.215v-.109l.108-.11v-.108l.109-.11h.108V3161l.11-.218.108-.109h.109l.109-.11.109-.109.109-.109v-.108l.218-.109a2.771,2.771,0,0,1,.906.087.585.585,0,0,0,.413-.05c.449-.222.894-.456,1.326-.711.2-.116.4-.255.412-.529l.109-.11v-.763h.109v-.546h.109c0-.491.005-.982,0-1.476a2.858,2.858,0,0,0-.093-1.077.625.625,0,0,1-.011-.324,3.31,3.31,0,0,0,0-1.166v-.108c.2-.151.074-.364.109-.547v-.218a3.4,3.4,0,0,0-.006-.428.79.79,0,0,0-.1-.227v-.108c-.009-.119.039-.257-.109-.329l-.109-.218h0l-.109-.218-.109-.109a1.336,1.336,0,0,0-.983-.869h0a.591.591,0,0,0-.545-.218h0l-.219-.11h-.109c-.058-.066-.1-.163-.173-.192a.658.658,0,0,1-.355-.454c-.1-.27-.174-.549-.261-.821-.043-.128-.108-.247-.179-.407-.114.1-.2.164-.271.236a4.062,4.062,0,0,1-.623.585,6.463,6.463,0,0,1-.831.3,3.226,3.226,0,0,1-1.123.1h0a1.586,1.586,0,0,1-.229-1.277c.026-.071-.033-.174-.048-.261-.019-.105-.034-.212-.051-.318l.11-.218.108-.11h0l.11-.108.109-.11a.777.777,0,0,0,.624.075,2.306,2.306,0,0,1,.529-.071c.38-.011.759,0,1.139,0l.109.109a.659.659,0,0,0,.082.132c.266.261.335.261.6,0a.618.618,0,0,0,.082-.132.948.948,0,0,0,.247-.092,3.034,3.034,0,0,1,1.034-.452.723.723,0,0,0,.252-.077.663.663,0,0,1,.929.087,1.421,1.421,0,0,0,.569.32,2.042,2.042,0,0,1,1.056-.34,5.638,5.638,0,0,1,.635-.1c.355.022.706.118,1.062.149a8.466,8.466,0,0,0,1.3.039.933.933,0,0,0,.657-.338.779.779,0,0,1,.67-.3c.059-.066.11-.174.18-.188a2.734,2.734,0,0,0,.931-.536,6.4,6.4,0,0,1,.675-.429.758.758,0,0,1,.317-.047,4.5,4.5,0,0,0,.858-.083,1.432,1.432,0,0,1,.975.076,2.05,2.05,0,0,0,.481-.467,1.062,1.062,0,0,1,.782-.517,2.065,2.065,0,0,0,.459-.145c.187-.06.377-.117.565-.173.217-.186.5-.167.749-.243s.447-.309.7-.4a7.767,7.767,0,0,0,1.162-.434,1.3,1.3,0,0,1,.414-.121.29.29,0,0,1,.351.214.279.279,0,0,1,.008.091c0,.123-.051.246-.057.37a2.286,2.286,0,0,0,.006.8,1.02,1.02,0,0,1-.364,1.114,3.56,3.56,0,0,1-1.086.782,1.74,1.74,0,0,1-.412.118,1.294,1.294,0,0,0-.7.3c.168.328.521.428.806.571a3.89,3.89,0,0,0,.946.219,2.708,2.708,0,0,1,.944-.609,1.643,1.643,0,0,0,.521-.381,1.114,1.114,0,0,0,.492-1.034,9.826,9.826,0,0,1,1.224-.906,4.343,4.343,0,0,0,1.2-.721.463.463,0,0,1,.521-.006,6.005,6.005,0,0,1,.714.388,1.05,1.05,0,0,0,.711.211,1.553,1.553,0,0,1,.687.11,1.913,1.913,0,0,0,.541.087l.741.771.054-.054.051.283.109.218c.574,0,1.149.005,1.723,0a2.387,2.387,0,0,1,.9.111l.11-.11a.309.309,0,0,1,.219-.326c-.131-.409-.289-.813-.385-1.23a11.806,11.806,0,0,1-.163-1.2.235.235,0,0,1,.011-.108,3.96,3.96,0,0,0,.095-1.058,1.625,1.625,0,0,0-.318-1.178,1.266,1.266,0,0,1-.124-.347.9.9,0,0,0-.768-.583c-.261,0-.521.174-.786.026-.322.243-.743.131-1.086.3a3.5,3.5,0,0,1-.435.213,2.133,2.133,0,0,0-.986.647,3.147,3.147,0,0,1-.934.645,1.569,1.569,0,0,1-1.5-.12.565.565,0,0,1-.252-.274,2.148,2.148,0,0,0-.564-.725.648.648,0,0,1-.224-.473,1.459,1.459,0,0,0-.144-.517.388.388,0,0,0-.49-.248.478.478,0,0,0-.049.02,4.144,4.144,0,0,1-.932.269,1.086,1.086,0,0,1-.739,0,2.456,2.456,0,0,0-.475-.08h-.218v-.11h-.218l-.219-.109-.218-.11h0l-.109-.109-.109-.11h0l-.109-.109-.109-.109-.109-.109v-.216h-.11l-.109-.11-.109-.108v-.218c-.15-.174-.2-.435-.434-.547a.311.311,0,0,0-.218-.327v-.109h-.11l-.108-.434c.147-.072.1-.21.108-.328v-.109c.148-.072.1-.209.11-.328l.218-.218h.108v-.108h0l.109-.109.109-.218.11-.109.109-.11.109-.109.109-.109.109-.109.109-.109.11-.109.108-.11.11-.108.109-.11.109-.109.109-.109.11-.109.109-.11h.109l.109-.108c.117-.011.256.038.328-.11h.108l1.092-.109a2.835,2.835,0,0,1,.642.062,1.266,1.266,0,0,1,.635.47,5.5,5.5,0,0,0,1.1,1.043,6.364,6.364,0,0,0,1.253.843c.18.08.337.21.51.307a.725.725,0,0,1,.358.449,1.7,1.7,0,0,0,.32.495,3.347,3.347,0,0,1,.395.445.8.8,0,0,0,.68.424l.7-.39c.216.07.434.155.66.209a.289.289,0,0,0,.368-.179.274.274,0,0,0,.016-.094,2.522,2.522,0,0,0-.016-.705.818.818,0,0,1,0-.522.407.407,0,0,0-.109-.508,11.74,11.74,0,0,1-1.529.248c-.1-.2-.182-.357-.253-.5a1.455,1.455,0,0,0-.924.14.409.409,0,0,1-.414,0,5.648,5.648,0,0,1-1.2-1.1,8.274,8.274,0,0,1-.492-.777c-.116-.2-.163-.453.027-.6a1.289,1.289,0,0,1,.859-.417,1.036,1.036,0,0,0,.685-.274,2.847,2.847,0,0,1,1.312-.608.8.8,0,0,0,.285-.134c.122-.075.234-.169.358-.242.333-.2.412-.314.286-.651a1.769,1.769,0,0,1-.081-.886,6.173,6.173,0,0,1,.113-.909,4.739,4.739,0,0,0,.226-1.651.516.516,0,0,1,.126-.4,2.108,2.108,0,0,0,.4-.571c.2-.545.746-.707,1.093-1.082.34-.056.5-.348.712-.559s.539-.393.521-.782c0-.056.08-.115.12-.173a6.8,6.8,0,0,1,1.02-1.124,1.887,1.887,0,0,1,.4-.279,1.76,1.76,0,0,1,1.209-.376c.063.011.136-.043.206-.057.283-.053.565-.1.847-.153h.328v-.109h.982v-.108h1.747c.15.2.364.074.546.108h.328l.108.109c.188-.011.36.01.435.218l.109.109h0l.109.11v.109l.108.109.11.655v1.308h.108l.11.109h1.528l.218.109h.218l.109.109h.109l.11.218.109.109h0l.108.219v.435l.109.109v1.31l.11.109v.109a1.357,1.357,0,0,0,0,.156c.034.286.1.337.39.3l.154-.02a3.411,3.411,0,0,1,.266-.214c.125-.082.261-.149.39-.222h1.091l.408-.186c.237-.28.119-.652.124-1,0-.06-.064-.125-.106-.182a3.663,3.663,0,0,1-.347-.474.966.966,0,0,0-1.062-.557l-.109-.109-.109-.109a.5.5,0,0,0-.328-.434l-.109-.11-.109-.109v-.109c-.015-.01-.041-.02-.042-.031a2.3,2.3,0,0,0-.8-1.292,1.222,1.222,0,0,1-.311-.558,5.3,5.3,0,0,1-.072-2.25c.146-.712.451-1.364.65-2.1a2.39,2.39,0,0,0-.352-.782,2.042,2.042,0,0,1-.261-.649.827.827,0,0,0-.666-.627h-.108a1.7,1.7,0,0,0-.307.292,2.048,2.048,0,0,1-1.165.829,1.714,1.714,0,0,0-.608.34,3.412,3.412,0,0,1-2.051.844c-.435.032-.855-.04-1.282-.017a.474.474,0,0,1-.257-.063c-.369-.225-.736-.456-1.094-.7a3.332,3.332,0,0,1-.41-.352c-.053-.048-.129-.125-.119-.173.066-.348-.252-.584-.261-.923a1.257,1.257,0,0,0-.3-.549,3.74,3.74,0,0,0-.442-.546.842.842,0,0,0-.369-.2c-.55-.146-.831-.618-1.209-.972-.095-.364-.208-.725-.277-1.094a6.181,6.181,0,0,1-.009-.653,1.75,1.75,0,0,1,.474-1.285.959.959,0,0,0,.076-.079,6.589,6.589,0,0,1,1.029-1.163,6.21,6.21,0,0,0,.718-1.077c.109-.166.22-.329.33-.494.021-.03.061-.058.062-.087.012-.424.341-.708.493-1.1a1.237,1.237,0,0,1-.237-.9,1.536,1.536,0,0,0-.056-.261c-.054-.4-.11-.807-.152-1.216a.36.36,0,0,1,.225-.347c.353-.18.719-.334,1.079-.5.39-.174.782-.348,1.168-.528.159-.073.314-.157.469-.237a1.664,1.664,0,0,1,.639-.48,16.418,16.418,0,0,0,1.706-1.145,1.789,1.789,0,0,0,.488-.49,5.421,5.421,0,0,1,1.066-1.294c.238-.224.471-.455.7-.7a1.148,1.148,0,0,0,.273-.4,2.855,2.855,0,0,1,1.368-1.614c.079-.046.151-.1.269-.173.293.077.618.173.949.244a.987.987,0,0,1,.676.505,3.1,3.1,0,0,1,.386,1.224c.019.234-.009.472.005.708a3.307,3.307,0,0,1-.5,1.681,1.547,1.547,0,0,1-1.2.729c-.255.061-.516.1-.828.157a.5.5,0,0,0,.543.275c.45-.087.737.261,1.094.408a1.337,1.337,0,0,1,.529.6,2.393,2.393,0,0,1,.366,1.331.851.851,0,0,0,.1.284v.109h5.838a.38.38,0,0,0,.39-.232,3.187,3.187,0,0,1,1.018-1.1,2.359,2.359,0,0,0,.583-.563,14.078,14.078,0,0,1,1.061-1.147c.247-.31.521-.6.782-.9a1.6,1.6,0,0,1,.669-.44c.456-.168.894-.386,1.337-.588a.674.674,0,0,0,.272-.173c.157-.213.41-.276.608-.429h.218c.216,0,.435.01.646-.005a.726.726,0,0,0,.227-.1h1.528a.66.66,0,0,0,.174.1c.226.049.459.069.682.127a1.312,1.312,0,0,1,.956,1.216,9.89,9.89,0,0,1,.049,1c-.009.049.065.115.1.174l.109.109v.109a5.463,5.463,0,0,1,1.5.127,1.276,1.276,0,0,1,1.206,1.175,3.384,3.384,0,0,1,.019.542c0,.124-.031.261.108.34v.654h.109v.109h0a8.125,8.125,0,0,1,.869.02,4.756,4.756,0,0,1,.674.19c.226.062.418.282.7.156.023-.011.087.057.127.087.068.054.134.11.2.167.292-.4.57-.771.842-1.15.1-.145.173-.308.363-.387a.812.812,0,0,0,.232-.224c.153-.174.291-.37.455-.536.534-.546,1.093-1.068,1.613-1.626a5.675,5.675,0,0,1,2.375-1.644.284.284,0,1,0,.468-.323.29.29,0,0,0-.079-.077.514.514,0,0,0-.144-.076,4.661,4.661,0,0,1-2.108-1.477,1,1,0,0,1-.261-.695,4.248,4.248,0,0,1,.181-.956,2.437,2.437,0,0,1,.675-1.206c.112-.116.256-.214.242-.406h1.856a.493.493,0,0,0,.434.328c.208.226.417.45.622.678.087.094.211.186.23.3a4.033,4.033,0,0,1,.244,1.375,3.071,3.071,0,0,0,0,.489l-.11.11-.108.109a5.872,5.872,0,0,0-.516.469c-.155.174-.42.282-.435.608.293,0,.561,0,.828,0,.041,0,.081-.062.122-.094h1.528c.062.12.174.094.283.112a1.6,1.6,0,0,1,1.186.545,1.025,1.025,0,0,1,.277.869l.218.218v.756a.33.33,0,0,0,.219.335c.1.158.252.1.389.108a4.591,4.591,0,0,1,1.007.1,1.385,1.385,0,0,1,.992.89c.1.244.156.506.232.761v.983a3.324,3.324,0,0,1-.348,1.788.992.992,0,0,1-.82.616.464.464,0,0,0-.253.072.661.661,0,0,1-.508.145c-.129,0-.261,0-.308.2a2.725,2.725,0,0,1,1.358.466,1.514,1.514,0,0,1,.769,1.069,1.241,1.241,0,0,0,.108.23v1.634a2.8,2.8,0,0,1-.049.428,3.83,3.83,0,0,1-.749,1.532c-.243.037-.507.087-.773.115-.247.026-.444.069-.535.359-.042.13-.218.227-.348.316a1.955,1.955,0,0,1-.329.159c-.066.44-.124.828-.184,1.225a.464.464,0,0,0-.489.406.484.484,0,0,1-.521.375h-.218a1.485,1.485,0,0,0-.665.234c.022.026.043.072.066.073a1.507,1.507,0,0,1,.782.19.173.173,0,0,0,.151.006c.157-.1.281,0,.405.06a2.976,2.976,0,0,1,.3.2,3.3,3.3,0,0,0,.938-.928,4.2,4.2,0,0,1,1.518-1.274,8.212,8.212,0,0,1,.956-.372.845.845,0,0,0,.459-.266.839.839,0,0,1,.617-.3,5.609,5.609,0,0,1,1.4-.129,4.19,4.19,0,0,1,.56-.858,6.178,6.178,0,0,1,.99-.989,12.519,12.519,0,0,1,1.009-.818,1.416,1.416,0,0,0,.248-.3,1.327,1.327,0,0,0-.951.123c-.2-.149-.234-.149-.434,0h-.655a1.8,1.8,0,0,0-.419-.219c-.56-.123-1.124-.236-1.692-.317a.936.936,0,0,1-.548-.187,1.3,1.3,0,0,0-.288-.15c-.006-.054-.015-.108-.026-.161-.153-.522-.054-.729.444-.917a1.023,1.023,0,0,1,.26-.075,1.1,1.1,0,0,0,.852-.594.186.186,0,0,0,.218-.147.209.209,0,0,0,0-.071l.109-.109.109-.109.109-.109.218-.11.11-.108.109-.11.109-.109.219-.109.108-.109c.118-.01.256.039.328-.11h.219c.072.149.209.1.326.11h.219c.072.147.209.1.328.109h.108l.219.109h.109l.219.109.327.328c.01.118-.039.255.109.327.01.118-.039.255.109.328l.109.218a.277.277,0,0,0,.239.309h.018a5.959,5.959,0,0,0,.944-.966l.109-.108c.218-.111.532-.029.655-.328l.219-.109c.117-.01.255.039.327-.11l.218-.108h.11l.218-.11c.148-.025.326.072.434-.109.118-.01.261.039.328-.109a.36.36,0,0,0,.376-.246,1.129,1.129,0,0,0-.049-.955v-1.31l.11-.219.109-.109v-.109l.109-.11.109-.108.109-.11h.219l.109-.108h.218l.109-.219.219-.109.109-.109h.109c.161,0,.322,0,.483,0a67.346,67.346,0,0,0-98.58,84.783Zm52.356-89.273.723-.039c.061-.3-.4-.469-.169-.829l.659-.053-.164-.718.717-.031.46-.427h5.567a1.675,1.675,0,0,1,.1.359,2.937,2.937,0,0,1-.38,1.66,1.209,1.209,0,0,1-1.06.72,2.233,2.233,0,0,0-.579.108.532.532,0,0,0-.232.126,5.82,5.82,0,0,1-1.485.977,7.731,7.731,0,0,1-1.112.546,7.909,7.909,0,0,1-.978.292,2.6,2.6,0,0,1-1.216-.184.429.429,0,0,1-.183-.112c-.254-.28-.511-.559-.749-.852a2.905,2.905,0,0,1-.245-.435c.15-.181.285-.347.415-.5C545.071,3097.2,544.836,3097.057,544.973,3096.8ZM505.335,3124.2a4.927,4.927,0,0,1,.455-.91,3.324,3.324,0,0,0,.253-.521l.11-.11.109-.109h0c.105-.019.245,0,.31-.063.268-.261.635-.087.923-.239.341.181.662-.074,1-.049a1.437,1.437,0,0,0,.655-.23.454.454,0,0,0,.275-.434c-.007-.348,0-.691,0-1.035a.441.441,0,0,0-.078-.251,2.5,2.5,0,0,1-.315-.912.68.68,0,0,1,.416-.781.557.557,0,0,1,.658.2c-.031.217-.07.446-.1.676a4.649,4.649,0,0,0-.032.486.417.417,0,0,0,.348.434,6.282,6.282,0,0,0,.8.123,5.518,5.518,0,0,0,1.43-.25c.123-.019.26-.087.364-.055a3.947,3.947,0,0,1,1.39.559.764.764,0,0,1,.369.732,2.863,2.863,0,0,0,0,.434,1.223,1.223,0,0,0-.494.545,3.106,3.106,0,0,1-.669.894,6.667,6.667,0,0,0-.529.534,1.414,1.414,0,0,0-.164.319h0l-.109.11h0l-.655.109a.763.763,0,0,0-.227-.1c-.178-.016-.358-.006-.537-.006-.078-.138-.212-.1-.334-.109a2,2,0,0,1-.581-.038.491.491,0,0,0-.613.147v.11h-.109v.218a.672.672,0,0,0-.326.655h0l-.11.218-.108.109v.109l-.109.109h0l-.109.218v.11l-.11.218h0c-.3.235-.2.568-.219.874v.109l-.108.109-.11.218-.109.11h0l-.109.218h0l-.109.218c-.21.078-.23.249-.218.435h0l-.11.219-.109.218c-.233.173-.5.325-.546.654h0l-.982.036c0-.307-.012-.609,0-.913a3.783,3.783,0,0,0-.169-1.32,2.4,2.4,0,0,1-.052-.423c.148-.072.1-.209.109-.327a.709.709,0,0,0,0-.764v-.219c-.035-.072-.072-.145-.108-.218h0v-.109h-.11l-.108-.109v-.218l-.109-.109h0l-.109-.218h0c-.037-.072-.072-.145-.109-.218h0A1.583,1.583,0,0,1,505.335,3124.2Zm-4.859,7.3.11-.218h0l.108-.109h0l.11-.109v-.109l.109-.109h0l.109-.109h0l.109-.11h0l.109-.109h0l.109-.109h0c.212-.014.31.155.435.275.4.38.8.763,1.2,1.144.008.053,0,.121.028.155.242.279.49.552.736.827h0l.109.218h0l.11.219.108.109h0l.11.109v.11l.109.108h0l.109.11h0l.109.218a.311.311,0,0,0,.218.327l.11.11a.311.311,0,0,0,.218.327c.068.087.118.2.2.244.388.181.521.567.8.879a1.073,1.073,0,0,0-.434.556,1.574,1.574,0,0,1-.249.347c-.11.142-.222.282-.339.417-.279.329-.562.655-.842.984a.393.393,0,0,1-.481.148c-.221-.1-.411-.017-.622,0a3.214,3.214,0,0,0-1.15.238.718.718,0,0,1-.269.009h-.109l-.109-.11h-.11l-.107-.108a2.164,2.164,0,0,0-.982-.328h0a2.01,2.01,0,0,0-.837-.746.435.435,0,0,1-.274-.369c-.06-.366-.128-.732-.192-1.1a2.27,2.27,0,0,0,.2-.134,2.066,2.066,0,0,0,.8-1.471c.02-.246-.016-.488.017-.729.026-.2.049-.39.073-.584h0a.82.82,0,0,0,.1-.227,3.4,3.4,0,0,0,.005-.428l.109-.219v-.109l.109-.218.109-.109Zm-2.55-7.621a1.163,1.163,0,0,1,.841-.118,8.309,8.309,0,0,1,1.048.22,1.036,1.036,0,0,1,.629.489,2,2,0,0,1-.906.573,2.926,2.926,0,0,0-.579.261,5.922,5.922,0,0,1-.6.318l-1.249-1.188c.285-.19.549-.373.815-.553Zm-5.965,33.6c-.182.034-.395-.087-.545.109-.15.025-.327-.068-.434.109a2.113,2.113,0,0,1-1.354-.639,2.6,2.6,0,0,0-.283-.234,1.2,1.2,0,0,0-.435-.764c.04-.154.08-.307.119-.462.034-.136.066-.273.1-.411.094-.081.231-.145.275-.248a.836.836,0,0,1,.669-.488,5.3,5.3,0,0,0,1.263-.6c.165-.081.277-.272.413-.414l.109-.109.11-.109.108-.109.635-.543c.193.041.4.077.608.134a.628.628,0,0,1,.285.15,2.164,2.164,0,0,1,.771,1.487,7.8,7.8,0,0,1-.115,1.608l-.108.111-.545.545-.11.109-.109.109-.109.109h-.218l-.327.219v.108c-.118.011-.256-.036-.329.11-.156.026-.333-.067-.444.111Z" fill="url(#linear-gradient-2)"/>
    <path id="Path_77" data-name="Path 77" d="M506.473,3125.593a.487.487,0,0,0,.106-.191A.561.561,0,0,1,506.473,3125.593Z" fill="url(#linear-gradient-7)"/>
    <path id="Path_78" data-name="Path 78" d="M501.952,3132.073a3.49,3.49,0,0,0-.7-.456c-.086.128-.158.23-.227.334.063-.087.1-.111-.058.385C501.458,3131.943,501.74,3131.943,501.952,3132.073Z" fill="url(#linear-gradient-8)"/>
    <path id="Path_79" data-name="Path 79" d="M500.965,3132.372l-.005.04a1.374,1.374,0,0,1,.358-.3A2.1,2.1,0,0,0,500.965,3132.372Z" fill="url(#linear-gradient-9)"/>
    <path id="Path_80" data-name="Path 80" d="M546.761,3175.924a.331.331,0,0,1,.117.067A.331.331,0,0,0,546.761,3175.924Z" fill="url(#linear-gradient-10)"/>
    <path id="Path_81" data-name="Path 81" d="M541.928,3192.544a1.069,1.069,0,0,1-1.061.083l-.009.022A1.144,1.144,0,0,0,541.928,3192.544Z" fill="url(#linear-gradient-11)"/>
    <path id="Path_82" data-name="Path 82" d="M510.184,3162.6a.57.57,0,0,0-.434.174,1.571,1.571,0,0,1-.213.161h0c.031.174.059.347.093.521.039.191.087.382.126.572.327.029.671-.081.981.109a3.051,3.051,0,0,1,.378,0,1.167,1.167,0,0,0,1.072-.356c.028-.035.054-.072.079-.11-.016-.082,0-.227-.063-.279a2.7,2.7,0,0,0-.956-.669A3.423,3.423,0,0,0,510.184,3162.6Z" fill="url(#linear-gradient-12)"/>
    <path id="Path_83" data-name="Path 83" d="M513.6,3162.13c.087.062.156.149.245.205a2.517,2.517,0,0,0,.827.49l.109-.109h0a.825.825,0,0,1,.654-.434c.087-.2.27-.278.435-.393a.423.423,0,0,0,.153-.608.5.5,0,0,0-.1-.188,1.5,1.5,0,0,1-.347-.6,3.768,3.768,0,0,0-.261-.535,3.648,3.648,0,0,1-.647-1.584.722.722,0,0,0-.1-.248.364.364,0,0,0-.485-.171.369.369,0,0,0-.107.078.585.585,0,0,0-.062.782.941.941,0,0,1,.223.8,2.771,2.771,0,0,1-.025.473.964.964,0,0,1-.428.72,1.346,1.346,0,0,1-.862.276.736.736,0,0,0-.63.188l-.067.39a.717.717,0,0,0,.235.068A1.652,1.652,0,0,1,513.6,3162.13Z" fill="url(#linear-gradient-13)"/>
    <path id="Path_84" data-name="Path 84" d="M499.931,3162.171v.26c.061-.016.123-.034.2-.049C499.931,3162.389,499.931,3162.279,499.931,3162.171Z" fill="url(#linear-gradient-14)"/>
    <path id="Path_85" data-name="Path 85" d="M500.162,3162.384h-.03a1.9,1.9,0,0,0-.5.522A1.718,1.718,0,0,1,500.162,3162.384Z" fill="url(#linear-gradient-15)"/>
    <path id="Path_86" data-name="Path 86" d="M521.486,3159.877a2.323,2.323,0,0,0,.051-.588.261.261,0,0,0-.244-.277.265.265,0,0,0-.179.057c-.368.228-.724.477-1.1.695a1.591,1.591,0,0,0-.632.857c-.062.154.038.235.2.238h0c.073-.147.21-.1.328-.109a.708.708,0,0,1,.229-.1c.287-.012.575,0,.863,0h0l.3-.2A5.218,5.218,0,0,0,521.486,3159.877Z" fill="url(#linear-gradient-16)"/>
    <path id="Path_87" data-name="Path 87" d="M538.574,3186.076h0l.108-.108Z" fill="url(#linear-gradient-17)"/>
    <path id="Path_88" data-name="Path 88" d="M587.316,3204a3.63,3.63,0,0,0,1.145-.423v-3.812a.6.6,0,0,0-.222-.472,5.007,5.007,0,0,0-2.008.289c-.1.393-.191.756-.282,1.12h0a2.594,2.594,0,0,1,.326,0,1.029,1.029,0,0,1,.851.674,3.412,3.412,0,0,1,.128,1.01c.02.4,0,.8.007,1.2A3.9,3.9,0,0,0,587.316,3204Z" fill="url(#linear-gradient-3)"/>
    <path id="Path_89" data-name="Path 89" d="M536.937,3114.139h0a.461.461,0,0,1-.2.155A.461.461,0,0,0,536.937,3114.139Z" fill="url(#linear-gradient-19)"/>
    <path id="Path_90" data-name="Path 90" d="M518.544,3163.311a2.276,2.276,0,0,0,.272-.158,4.758,4.758,0,0,0,1.014-.143,4.758,4.758,0,0,1-1.014.143A2.276,2.276,0,0,1,518.544,3163.311Z" fill="url(#linear-gradient-20)"/>
    <path id="Path_91" data-name="Path 91" d="M560.841,3183.461l-.109-.11Z" fill="url(#linear-gradient-21)"/>
    <path id="Path_92" data-name="Path 92" d="M560.957,3174.4h0c.3-.046.6-.078.9-.136C561.56,3174.321,561.258,3174.353,560.957,3174.4Z" fill="url(#linear-gradient-22)"/>
    <path id="Path_93" data-name="Path 93" d="M596.957,3130.352a4.8,4.8,0,0,0,.752-.434,1.025,1.025,0,0,0,.45-.6c.062-.233.233-.466.044-.758a1.438,1.438,0,0,1-1.042.317,1.748,1.748,0,0,0-.739.129,1.156,1.156,0,0,0-.65.823c-.063.3-.137.6-.227.888a2.259,2.259,0,0,1-.794.945c-.045.042-.137.034-.208.045l-.979.149-.708.6q-.056.183-.093.372a1.252,1.252,0,0,0-.023.427c.072.347.173.695.27,1.065.087-.019.192-.012.247-.061.159-.146.294-.318.443-.475.173-.182.347-.364.529-.538.087-.087.21-.146.294-.237a3.493,3.493,0,0,1,1.145-.809.647.647,0,0,0,.454-.613.975.975,0,0,1,.087-.309A1.387,1.387,0,0,1,596.957,3130.352Z" fill="url(#linear-gradient-2)"/>
    <path id="Path_94" data-name="Path 94" d="M564,3181.28a1.666,1.666,0,0,0-.282-.973,3.1,3.1,0,0,0-.33-.012c-.087.006-.174.041-.26.054-.142.021-.284.035-.427.053a3,3,0,0,1-1.2,1.151c.02.138.027.26.056.376.049.191.121.38-.056.545v.875h0l.109.108c.38,0,.76.011,1.14,0a3.9,3.9,0,0,0,1.161-.069,2.773,2.773,0,0,1,.012-.761A4.294,4.294,0,0,0,564,3181.28Z" fill="url(#linear-gradient-24)"/>
    <path id="Path_95" data-name="Path 95" d="M496.945,3179.821h0a.962.962,0,0,1-.212.652A.962.962,0,0,0,496.945,3179.821Z" fill="url(#linear-gradient-25)"/>
    <path id="Path_96" data-name="Path 96" d="M570.45,3183.461l-.11-.109h0c-.227,0-.34-.152-.434-.328a1.634,1.634,0,0,0-.267-.184,1.467,1.467,0,0,0-1.082-.16c-.373.123-.775.154-1.159.252a10.219,10.219,0,0,0-.975.312c-.087.033-.149.131-.261.238.511.24.956.484,1.018,1.07.279.12.562.238.84.365a4.292,4.292,0,0,0,1.2.279,2.965,2.965,0,0,0,.722-.077.782.782,0,0,1,.4.79c-.035.409-.1.816-.144,1.225-.024.194-.048.39-.071.584v1.743a1.457,1.457,0,0,1,.789.314.322.322,0,0,1,.144.158,1.837,1.837,0,0,1-.065,1.657,11.075,11.075,0,0,1-.932,1.248,11.33,11.33,0,0,1-1.089.963c-.036.03-.105.021-.158.031.046.069.079.18.139.2.118.037.268-.014.376.034a1.282,1.282,0,0,0,1.093-.11,10.885,10.885,0,0,1,1.911-.57,4.707,4.707,0,0,0,.972-.333c.361-.165.7-.378,1.048-.572q.354-.2.7-.407a.592.592,0,0,0,.316-.474c.043-.355.145-.7.2-1.056a1.128,1.128,0,0,1,.822-.9,2.816,2.816,0,0,1,1.059-.185,5.363,5.363,0,0,0,1.147-.036l.031-.4-.329-.109h-.98a1.7,1.7,0,0,1-1.4-.578.44.44,0,0,0-.117-.115,1.389,1.389,0,0,1-.6-.79,1.756,1.756,0,0,1-.188-.724,1.5,1.5,0,0,0-.1-.412l-.109-.11-.109-.109a4.5,4.5,0,0,0-1.13-.338,1.315,1.315,0,0,1-.391-.179,1.626,1.626,0,0,1-1.86-.574l-.333-.281c-.105-.45.347-.706.173-1.114l-.273-.024h0c-.212.154-.254.144-.435-.11Z" fill="url(#linear-gradient-2)"/>
    <path id="Path_97" data-name="Path 97" d="M550.8,3222.756a3.611,3.611,0,0,0-.43,0,.786.786,0,0,0-.225.1h-.11l-.108.108h0l-.11.11h0l-.109.109h0l-.108.109h-.11v.108l-.108.11-.11.108c-.035,0-.081,0-.1.014-.22.182-.439.367-.658.551,1.295.087,2.6.149,3.909.165l-.092-.182h0l-.109-.11-.109-.109h0l-.109-.11v-.108l-.11-.11-.108-.109-.11-.109-.108-.109v-.109l-.109-.109-.109-.11-.109-.108h0l-.11-.11h0C551.019,3222.607,550.91,3222.608,550.8,3222.756Z" fill="url(#linear-gradient-27)"/>
    <path id="Path_98" data-name="Path 98" d="M580.384,3218.28c.148-.072.1-.209.109-.327.149-.2.149-.234,0-.435v-.108l-.109-.218-.11-.11-.108-.109v-.218h-.109l-.109-.109-.109-.109h0l-.109-.109h0l-.109-.109h0l-.109-.11h0l-.11-.109h0a.684.684,0,0,0-.228-.1c-.287-.012-.575-.005-.864-.005h0c-.11-.179-.288-.087-.434-.109h0l-.218-.109c-.072-.148-.21-.1-.328-.11h-.109l-.218-.108c-.072-.148-.21-.1-.328-.11-.072-.147-.209-.1-.327-.109h0l-.11-.109h0l-.108-.109h0l-.11-.109h0l-.109-.111h0v-.217l.109-.109.109-.11.109-.108.11-.11c.118-.01.255.038.327-.109h.109c.118-.01.255.038.327-.109.119-.01.256.038.328-.109h0c.149-.026.327.07.434-.11h.109c.149-.025.327.071.434-.108h.435c.109.179.288.087.434.108.179-.15.434-.2.547-.434.475-.256.964-.491,1.423-.774a4.232,4.232,0,0,0,1.21-1.067,4.016,4.016,0,0,0,.457-.972,4.391,4.391,0,0,0,.4-1.662h-.106c-.036-.073-.074-.145-.11-.218l-.11-.109a1,1,0,0,0-.576.119,1.911,1.911,0,0,1-.993.212c-.435-.014-.869,0-1.3,0a1.87,1.87,0,0,1-1.2-.5,2.89,2.89,0,0,1-.671-.69c-.031-.051-.113-.071-.193-.12-.052.128-.083.228-.131.318a1.889,1.889,0,0,1-.82.9,12.447,12.447,0,0,0-1.173.767,1.081,1.081,0,0,1-.247.093l-.11.218c-.148,0-.207-.08-.221-.23-.017-.18.087-.389-.106-.535v-.108c-.025-.149.071-.328-.109-.435v-.218c-.039-.165-.078-.329-.116-.494h-.1l-.115.494a.347.347,0,0,0-.219.275c-.064.292-.149.578-.215.869a.354.354,0,0,1-.221.275h-.11l-.218-.109h-.109l-.218-.109-.219-.11h-.109l-.109-.108h-.109l-.109-.11h-.11v-.109h-.218v-.109h-.109v-.109h-.218l-.218-.109h0l-.11-.109-.109-.109-.109-.109c-.056-.212-.114-.425-.174-.669l-.149.123-.109.109-.218.109-.11.11h-.218a.435.435,0,0,1-.456.05c-.152-.087-.222.036-.315.174.422.4.33.915.334,1.414-.179.109-.087.288-.109.434v.108c-.147.073-.1.21-.109.328v.109l-.108.219v.109l-.108.218v.109l-.109.219v.109l-.109.218-.108.218v.109l-.109.219h0l-.655.219H568.6c-.073-.147-.21-.1-.329-.109h-.108l-.219-.108h-.109c-.072-.146-.209-.1-.327-.108-.073-.148-.21-.1-.328-.11h-.109l-.109-.108h-.109l-.219-.109h0v-.108h-.107l-.109-.111v-.325h-.108l-.109-.218v-.109c-.037-.073-.073-.146-.109-.219V3210h.109v-.434a.972.972,0,0,0,0-.983v-.109l-.109-.11v-.108l-.108-.11v-.869l-.109-.108v-1.856c.2-.15.074-.364.11-.546v-.109a1.021,1.021,0,0,0,.212-.751.889.889,0,0,0-.1-.244,4.347,4.347,0,0,1-.54.434c-.348.2-.782.261-1.029.629-.334.052-.493.348-.731.527a1.349,1.349,0,0,1-.516.271.667.667,0,0,0-.575.557l-.109.218-.109.109v.11l-.109.108v.109q-.222.165,0,.328v.109l.109.109v.11l.109.109.109.218v.109l.11.11v.434q.109.656.218,1.31c-.183.139-.1.322-.078.493.02.14.068.277.075.417a3.231,3.231,0,0,0,.1,1.008,1.205,1.205,0,0,1,.011.374l.109.11.329.216.434.111.218.11.218.109a.671.671,0,0,0,.546.328l.434.218a.678.678,0,0,0,.546.329l.547.544a.5.5,0,0,0,.326.435l.11.218c0,.226.155.338.328.434h.109l.11.11h0l.108.219h0c.01.118-.037.255.11.328h0c.009.119-.037.255.109.328v.109c.023.159.057.317.069.477.037.468.293.945-.046,1.352a1.423,1.423,0,0,0,.62,1.032,3.366,3.366,0,0,1,1.057,1.324.368.368,0,0,1-.061.451,2.086,2.086,0,0,1-.89.6c-.179.069-.354.15-.531.224h0l-.95.334a1.3,1.3,0,0,1-.68-.978c-.039-.152-.073-.277-.226-.338h0a1.424,1.424,0,0,0-1.016-1.074,16.33,16.33,0,0,0-1.713-.347h0l-.764-.874h0l-.109-.109h0l-.109-.109h0l-.109-.11h0l-.11-.217h0l-.109-.11h0l-.109-.11h0l-.109-.109h0l-.11-.11h0l-.109-.108-.109-.11h0l-.11-.109h0l-.218-.109c-.11-.174-.288-.087-.434-.109h0c-.072-.146-.21-.1-.328-.109-.072-.147-.209-.1-.327-.109h0c-.072-.147-.21-.1-.328-.109h-.108c-.073-.146-.21-.1-.328-.109h0c-.073-.146-.209-.1-.328-.109h0a.876.876,0,0,0-.589-.213,2.586,2.586,0,0,1-1.11-.19,1.214,1.214,0,0,0-.375-.034h0l-.11-.108-.218.109a.3.3,0,0,0-.327.271.308.308,0,0,0,0,.068v.642c-.036.059-.1.117-.1.174q-.013.7,0,1.4c0,.058.066.116.1.174h0c.01.118-.037.255.109.328v.109l.109.218h0c.01.119-.039.256.109.328l.109.218h0l.109.109h0c.049.33.314.479.547.655a.308.308,0,0,0,.327.218l.218.11h0l.218.108h.109c.11.174.289.087.434.109.117-.01.255.037.328-.109h1.964a.494.494,0,0,0,.656,0h.764l.218.111h0l.108.108h0l.11.11.327.326.11.11h0l.108.109h0v.11h.11v.108l.108.11.11.218.108.218.11.219V3223l.108.219v.109l.109.109h0l.059.059a66.756,66.756,0,0,0,15.962-4.724.627.627,0,0,0,.026-.247Zm-5.895-3.166-.109.11-.11.109-.108.109-.11.109c-.053.009-.138,0-.153.03-.206.382-.609.536-.916.795-.013.01-.015.032-.023.048h-.108l-.11-.109v-3.056l.109-.109v-.109l.108-.109v-.109l.109-.109v-.109l.11-.109.109-.218.109-.11h0l.109-.109h0l.109-.11v-.108l.108-.11.11-.109.108-.109h0l.11-.109h0l.108-.11h0l.109-.108h0l.109-.11h0l.11.218c-.034.1-.061.207-.1.305a2.143,2.143,0,0,0-.26,1.5c.057.2-.123.374-.377.434-.1.024-.2.051-.3.076.044.326.338.391.5.572a2.577,2.577,0,0,0,.552.434.853.853,0,0,0,.312.062l.109.218c-.181-.012-.354.008-.433.217Z" fill="url(#linear-gradient-2)"/>
    <path id="Path_99" data-name="Path 99" d="M593.959,3157.189a1.476,1.476,0,0,0-.912.069,7.293,7.293,0,0,1-.093,1.5,1.826,1.826,0,0,0,.008.86,4.217,4.217,0,0,1,.087.91l.382-.02a7.657,7.657,0,0,0,.367-.9,4.631,4.631,0,0,0,.128-1.332C593.916,3157.928,593.946,3157.571,593.959,3157.189Z" fill="url(#linear-gradient-29)"/>
    <path id="Path_100" data-name="Path 100" d="M573.073,3181.6h0l.325-.548Z" fill="url(#linear-gradient-30)"/>
    <path id="Path_101" data-name="Path 101" d="M555.3,3224.329c.4-.012.8-.012,1.2-.03a.491.491,0,0,0-.127-.015c-.119-.272-.4-.347-.66-.555a2.159,2.159,0,0,0-.157.241.963.963,0,0,0-.056.206h0l-.11.108h0Z" fill="url(#linear-gradient-31)"/>
    <path id="Path_102" data-name="Path 102" d="M560.474,3112.356a3.2,3.2,0,0,0,1.2.022c.625-.055,1.217-.3,1.853-.323.173-.007.3-.156.248-.29-.18-.434.022-.85.044-1.269a2.428,2.428,0,0,1,.229-.936,1.98,1.98,0,0,0,.139-1.255,1.45,1.45,0,0,1-1.088.626,5.367,5.367,0,0,1-.6.638c-.314.239-.666.428-1,.64a3.877,3.877,0,0,1-.16.826,1.15,1.15,0,0,1-.932.7C560.429,3111.946,560.351,3112.17,560.474,3112.356Z" fill="url(#linear-gradient-32)"/>
    <path id="Path_103" data-name="Path 103" d="M586.5,3197.322l-.219.108c.272.29.537.587.821.869a.95.95,0,0,0,.373.211c.269.087.545.142.826.213a1.99,1.99,0,0,0-.112-1.144,1.776,1.776,0,0,0-.173-.67,2.236,2.236,0,0,0-.756-.675h-.108a1.771,1.771,0,0,1-.005.325A.856.856,0,0,1,586.5,3197.322Z" fill="url(#linear-gradient-33)"/>
    <path id="Path_104" data-name="Path 104" d="M583.886,3201.38v-.01c-.165.01-.324.01-.454.01Z" fill="url(#linear-gradient-34)"/>
    <path id="Path_105" data-name="Path 105" d="M583.883,3201.37a.812.812,0,0,1,.513.137.881.881,0,0,0-.513-.147Z" fill="url(#linear-gradient-35)"/>
    <path id="Path_106" data-name="Path 106" d="M589.337,3187.718c.024-.026.046-.072.073-.075.373-.051.748-.095,1.122-.143.316-.042.633-.087.956-.133a1.4,1.4,0,0,0-.628-1.434.793.793,0,0,0-.687-.04,5.533,5.533,0,0,1-1.623.061c-.173,0-.338-.173-.526-.283l-.249.068c-.213-.146-.4-.47-.73-.205h0l-.11.11-.327.327a.622.622,0,0,1,.532.649,2.24,2.24,0,0,0,.322.781.607.607,0,0,0,.631.325C588.5,3187.7,588.92,3187.718,589.337,3187.718Z" fill="url(#linear-gradient-2)"/>
    <path id="Path_107" data-name="Path 107" d="M584.124,3203.762h-.015c-.046.213-.1.42-.165.625C584.006,3204.182,584.064,3203.975,584.124,3203.762Z" fill="url(#linear-gradient-37)"/>
    <path id="Path_108" data-name="Path 108" d="M567.971,3193.937a.861.861,0,0,0-.578-.219v.219Z" fill="url(#linear-gradient-38)"/>
    <path id="Path_109" data-name="Path 109" d="M566.8,3207.856a.807.807,0,0,1-.107-.338c-.174.129-.251.087-.273-.016a.521.521,0,0,0,.322.408v.218A.85.85,0,0,1,566.8,3207.856Z" fill="url(#linear-gradient-39)"/>
    <path id="Path_110" data-name="Path 110" d="M574.162,3201.25h.327l.218.11.268-.028a.726.726,0,0,0,.055-.163c.025-.64-.143-.847-.8-.893a1.285,1.285,0,0,1-1.066-.538.786.786,0,0,0-.407-.228.851.851,0,0,1-.674-.849c0-.237-.007-.474,0-.709a.49.49,0,0,0-.381-.522,3.163,3.163,0,0,1-.851-.317c-.235-.161-.488-.3-.733-.444v2.4l.025.38,1.135.282a.416.416,0,0,1,.355.354.5.5,0,0,0,.482.524c.023,0,.046,0,.069,0,.04,0,.078.063.117.1a.687.687,0,0,1,.655.218h0c.148.025.327-.07.434.109.149.026.328-.071.435.11h0C573.952,3201.151,574.09,3201.1,574.162,3201.25Z" fill="url(#linear-gradient-40)"/>
    <path id="Path_111" data-name="Path 111" d="M584.316,3203.363c.056.209-.141.271-.221.4a.558.558,0,0,0-.448.648c0,.014.006.028.01.041a.554.554,0,0,1,.4-.676.5.5,0,0,1,.055-.012C584.175,3203.634,584.372,3203.572,584.316,3203.363Z" fill="url(#linear-gradient-41)"/>
    <path id="Path_112" data-name="Path 112" d="M523.182,3157.367h0l.219-.109h.109l.218-.109h0a.893.893,0,0,0,.521-.541.822.822,0,0,1,.551-.548.606.606,0,0,0,.254-.19,1.448,1.448,0,0,1,1.025-.586.5.5,0,0,0,.231-.12c.127-.1.246-.2.368-.308a2.13,2.13,0,0,0,.111-.8c-.006-.161.006-.162.2-.377a1.073,1.073,0,0,1,.12.292,4.418,4.418,0,0,1,0,.652.5.5,0,0,0,.217.49l.987-.043h.219a.68.68,0,0,1,.228-.1c.287-.013.575,0,.863-.006h.546c.072-.126.145-.125.218,0h.983l.947.074a5.161,5.161,0,0,0-.281-.753.8.8,0,0,1-.12-.458,1.874,1.874,0,0,0-.219-.937.521.521,0,0,1-.438-.16c-.354-.335-.718-.658-1.085-.978a9.141,9.141,0,0,1-.916-.664c-.057-.062-.246-.047-.355-.01-.186.062-.355.178-.537.26a3.671,3.671,0,0,1-.406.135,1.106,1.106,0,0,1-.922-.194,1.082,1.082,0,0,1-1.017.414h0c-.072.147-.21.1-.328.109a5.232,5.232,0,0,1-1.265,1.06l-.154.687c-.063.477-.2.893-.764.982a.622.622,0,0,0-.087.2c-.033.48-.354.67-.762.787a2,2,0,0,0-.337.144,2.449,2.449,0,0,1-.927.386.787.787,0,0,0-.716.45,2.408,2.408,0,0,0,.815.632,1.942,1.942,0,0,0,.874.244C522.64,3157.36,522.911,3157.367,523.182,3157.367Z" fill="url(#linear-gradient-2)"/>
    <path id="Path_113" data-name="Path 113" d="M499.385,3181.82Z" fill="#fff"/>
    <path id="Path_114" data-name="Path 114" d="M537.373,3210.312h.111a.264.264,0,0,1-.117-.021c.006.092.006.165.006.237Z" fill="url(#linear-gradient-43)"/>
    <path id="Path_115" data-name="Path 115" d="M505.742,3185.024c.017.032.036.063.054.093-.018-.03-.037-.061-.054-.093a.462.462,0,0,1,.017-.1A.462.462,0,0,0,505.742,3185.024Z" fill="url(#linear-gradient-44)"/>
    <path id="Path_116" data-name="Path 116" d="M504.3,3180.291l-.109-.109Z" fill="url(#linear-gradient-45)"/>
    <path id="Path_117" data-name="Path 117" d="M614.116,3129.423v.109l-.11.109v.11l-.109.108v.11l-.109.109v.109l-.109.109-.328.655-.109.11-.218.434-.11.109-.108.218-.11.11h0l-.109.109c-.037.072-.072.145-.109.218l-.109.109-.11.109-.108.11c-.221.275-.435.559-.665.823a4.388,4.388,0,0,0-.645,1.033l-.11.109v.109l-.108.109-.11.328v.108l-.109.11v.108c-.036.037-.072.074-.109.11l-.109.218a3.249,3.249,0,0,1-.955,1.661,4.73,4.73,0,0,0-1.036,1.443,17.12,17.12,0,0,1-.849,1.572c-.245.4-.556.752-.834,1.13a8.121,8.121,0,0,0-.525.75c-.288.5-.551,1.016-.823,1.526-.034.064-.093.134-.087.2.037.377-.213.584-.434.827-.192.212-.325.475-.5.706-.248.332-.5.662-.766.975a.943.943,0,0,0-.289.678l-.109.218-.062.3c.269.243.276.658.552.946a1.4,1.4,0,0,0,.5.387.714.714,0,0,1,.526.861l-.005.018a1.588,1.588,0,0,0,.006,1.006,1.26,1.26,0,0,1,.006.388c-.114,0-.2.026-.247,0a.945.945,0,0,1-.507-.84,1.1,1.1,0,0,1,0-.163.944.944,0,0,0-.569-1.043l-.389.152a1.884,1.884,0,0,0-.019.327,2.578,2.578,0,0,1,.077.417,1.1,1.1,0,0,1-.146.343.552.552,0,0,0,.361.444,2.157,2.157,0,0,1,.338.174c.086.056.217.112.249.2.149.4.429.767.261,1.232a.894.894,0,0,0,.017.687.409.409,0,0,1-.11.494c-.053.049-.131.108-.134.166-.016.286-.261.367-.429.521a.314.314,0,0,0-.053.094h-.109l-.109.109h-.218c-.119.01-.256-.039-.328.109h-.327l-.11.109c-.09.037-.09.073,0,.11v.434a.82.82,0,0,0-.1.227,3.818,3.818,0,0,0-.005.428l-.109.11-.109.108-.109.11-.109.109c-.183.035-.4-.087-.546.109a1.148,1.148,0,0,1-.37-.01,3.022,3.022,0,0,0-1.05-.1h-.218q-.164-.222-.327,0c-.148.071-.1.209-.11.328v.108l-.108.11h-.11v.109c-.327.261-.621.542-.516,1.043.445.169.856-.153,1.28-.057l.219-.108c.147-.037.295-.068.44-.112a1.491,1.491,0,0,0,.215-.107h2.51c.062.12.174.106.281.11a.981.981,0,0,1,.717.323,1.818,1.818,0,0,1,.536,1.087c0,.076.067.152.1.228v.981h.109a.709.709,0,0,0,.228.1c.251.012.5,0,.755,0l-.218-.218-.11-.109h0l-.109-.108h0l-.109-.11c-.025-.148.071-.327-.109-.434v-.655l.109-.219v-.109l.109-.109.109-.109h0l.11-.109h0l.108-.11.11-.109h0c.245.018.374-.288.647-.223.227.053.411-.1.608-.183.174-.068.309.016.369.2a1.881,1.881,0,0,1-.031,1.369,1.011,1.011,0,0,0-.061.206,1.346,1.346,0,0,1-.538,1.071.854.854,0,0,0-.124.173l.328.11c.087-.013.2,0,.26-.045.331-.244.65-.5,1-.776.162-.012.224.338.477.192.03-.018.141.047.173.1.209.354.4.715.609,1.074a.724.724,0,0,1,.618.459c.087.2.23.368.323.564a1.517,1.517,0,0,1,.293.905c-.016.108.079.232.121.347.1.272.183.546.287.815a4.373,4.373,0,0,0,.282.808.931.931,0,0,1,.093.833,3.132,3.132,0,0,0-.08.766l-.348.161a1.943,1.943,0,0,1-.01.9c-.124-.087-.222-.148-.315-.22s-.163-.139-.291-.249c-.039.129-.1.227-.086.306a1.2,1.2,0,0,0,.173.391c.22.327.455.644.683.966.037.242.065.485.113.725a1.373,1.373,0,0,0,.128.335c.115.232.12.229-.132.468,0,.564,0,1.129,0,1.691a3.407,3.407,0,0,1-.05.483.684.684,0,0,1-.631.665.743.743,0,0,0-.306.079.763.763,0,0,1-.869.03v-.218h-.109v-.219l-.109-.109-.109-.109h0l-.109-.218-.11-.111v-.107l-.109-.11a.311.311,0,0,0-.218-.327h0l-.109-.219h0l-.109-.218h0l-.109-.218-.11-.219h0l-.109-.11h0c-.039-.094-.079-.188-.119-.283-.086-.206-.31-.34-.318-.59.147-.072.1-.209.109-.327.123-.212.261-.418.367-.639s.18-.458.273-.7a.78.78,0,0,0-.749-.3l-.218-.109-.218-.109-.219-.109-.109-.11c-.073-.036-.146-.072-.218-.109v-.108h-.218l-.109-.108-.109-.11h0l-.109-.108h-.108l-.11-.109a1.183,1.183,0,0,0-.444-.308l-.629.4-.128.45c-.179.109-.087.288-.109.434-.036.073-.073.146-.108.219l-.219.219-.11.108-.109.109h-.109l-.608.156a2.33,2.33,0,0,1-.969.928,2.987,2.987,0,0,1-.492.206.663.663,0,0,0-.4.261,2.888,2.888,0,0,1-1.224.848.9.9,0,0,0-.569.657h0l-.109.109v.11c-.148.072-.1.209-.109.327v.11h-.108v.654h0a.832.832,0,0,0-.1.227,3.819,3.819,0,0,0-.007.428c-.194.151-.075.363-.108.546v.108h-.106l-.005,2.616v.546c0,.107-.005.214,0,.322a6.805,6.805,0,0,1-.109,1.534l-.109.109v.218l-.109.11h0l-.11.108-.217.111-.11.108h-.217a.558.558,0,0,0-.527.205,4.361,4.361,0,0,1-1.276,1.051l-.162.491v.327c-.087.057-.132.139-.024.2.182.095.378.162.569.241h0l.11.11.218.108.109.109h.109l.109.108h0l.109.111v.108a1.436,1.436,0,0,1-.136.733,1.7,1.7,0,0,0-.087.468c-.147.072-.1.209-.108.328-.174.095-.328.209-.328.434v.109c-.147.072-.1.209-.109.327h-.109v.218h.109l.109.109c.1.173.21.327.435.327l.109.11.218.109.11.109.218.109.219.11.108.218h.219l.109.109a.969.969,0,0,1,.063.565c-.028.536-.313.731-.791.844a3.541,3.541,0,0,1-1.495.056,4.573,4.573,0,0,1-1.226-.4c-.22-.111-.489-.11-.69-.278-.01-.007-.077.054-.118.087l.108.109,1.092,1.092a.944.944,0,0,0,.767.057,2.519,2.519,0,0,1,.98-.165h.109a.692.692,0,0,1,.229-.106c.287-.012.575,0,.863,0h.434v-.108h.656v.108h.868v-.218l.11-.109.109-.109.109-.109.109-.109.11-.109.108-.11.11-.109.109-.109h.109l.109-.109h.11l.108-.109h.435c.072.148.209.1.327.109h.218l.218.109h.11l.218.109.109.109.218.11.11.109.108.109v.109l.11.109v1.747h0l-.11.218v.109l-.108.11-.11.218-.108.109v.109l-.11.109-.109.109c-.126.073-.127.146,0,.219v.108h.434l.218.108h.219l.109.109.328.328c.036.073.072.145.109.218v.545h.108v2.338a3.541,3.541,0,0,1-.219,1.156v.109l-.108.109-.11.109h-.109l-.109.11h-.109l-.11.109-.689.154c.347.2.608.342.868.485.156.087.317.156.475.234l.218.109.109.109h.11l.108.11.11.108a1.977,1.977,0,0,1,.434,1.085v.008a67.482,67.482,0,0,0,4.89-6.777l-.306-.538-.11-.109v-.109c-.035-.073-.072-.146-.108-.218v-.218l.108-.11.11-.109.109-.109.109-.109a.913.913,0,0,1,.974.109c.007.013.02.038.028.056a67.323,67.323,0,0,0,3.395-62.626C614.357,3129.119,614.231,3129.268,614.116,3129.423Zm-7.037,44.647c-.073.25-.114.509-.169.765h0c-.208.077-.229.249-.218.434-.174.053-.216.215-.283.347a.786.786,0,0,1-.372.414h-.327a.749.749,0,0,0-.227-.1c-.174-.016-.358,0-.537,0h-.11l-.109-.11-.218-.109h0l-.11-.109h0l-.11-.109-.109-.109-.109-.109h0l-.109-.11h0l-.11-.218v-.109l-.108-.218v-.435a.783.783,0,0,0,.1-.226c.016-.174.006-.358.006-.537l.218-.11h.109l.434-.435h.109v-.108h0l.109-.109.11-.109h.218c.072.147.209.1.327.109h.11c.072.148.209.1.327.109h.109l.219.11.218.108.218.11h0l.218.109h0l.109.109h0a.938.938,0,0,1,.064.756Z" fill="url(#linear-gradient-2)"/>
    <path id="Path_118" data-name="Path 118" d="M521.549,3178.821" fill="#fff"/>
    <path id="Path_119" data-name="Path 119" d="M518.489,3185.422l-.11.109Z" fill="url(#linear-gradient-47)"/>
    <path id="Path_120" data-name="Path 120" d="M526.785,3178.436l-.327-.219a2.9,2.9,0,0,0-.146-.287c.007.029-.009.061-.092.1a1.776,1.776,0,0,1,.273.336C526.7,3178.378,526.741,3178.406,526.785,3178.436Z" fill="url(#linear-gradient-48)"/>
    <path id="Path_121" data-name="Path 121" d="M514.777,3211.84l.328-.328v-.109h.108v-.11l.11-.108.108-.11h.11v-.109l.11-.109h.326v-.108l.218-.11h0l.219-.108h.108l.218-.109h0l.219-.109h.435v-.108a1.113,1.113,0,0,0,.749-1.024,2.774,2.774,0,0,0-.147-1.5,1.536,1.536,0,0,1-.057-.426h-.1v-.109h-.11v-.109h-.109v-.109h-.109v-.109H517.4l-.109-.109v-.218h-.109l-.109-.11h0l-.109-.218h0l-.109-.109h0c-.036-.073-.073-.146-.108-.219v-.109l-.109-.218h0c-.01-.118.038-.255-.109-.328v-.109l-.108-.109v-.654l.109-.11h0l.109-.218.109-.218h0c.037-.036.073-.073.109-.11h0l.109-.218h0l.109-.109h0l.11-.218h0l.108-.109,1.092-1.092h.328c.072.147.209.1.327.109h.109c.073.147.209.1.327.109h.11c.109.179.288.087.434.108h0l.435.219c.173.126.3.315.546.328l.109.108h0a1.043,1.043,0,0,0,.572.218c.309.047.616.1.93.149l.027.288c-.148.072-.1.209-.11.328h0l-.109.218c-.147.072-.1.21-.109.327a.314.314,0,0,0-.219.328h0l-.109.109h0l-.109.109h0l-.109.109-.109.11c-.036.036-.073.072-.109.109l-.11.109-.108.109-.11.109h-.108v.217l-.109.109h-.109v.217h-.109v.109h-.109v.217l-.108.11-.11.109h-.108v.11h-.11v.218h0l-.109.109h0l-.11.109h0c-.155.006-.21.087-.219.242-.014.227.078.475-.1.674a.45.45,0,0,0-.1.453c.08.239.073.534.383.718l.15-.34.109-.219h0l.109-.108v-.109l.109-.11h0l.109-.109h0l.109-.108h0l.108-.11h0c.038-.035.074-.072.111-.108H521l.11-.108h.108l.11-.109h.108l.11-.108h.217v-.108l.11-.109h.109l.109-.108h.109l.109-.108h.109l.109-.108h.218v-.11h.218v-.109h0l.219-.108h0l.11-.109h0a.31.31,0,0,0,.326-.218l.588-.1a2.649,2.649,0,0,0,1.05,1.3l.11.109.108.11h0l.11.217.109.218h0l.109.108h0l.109.219a3.805,3.805,0,0,0,.005.428.819.819,0,0,0,.1.227v.545l-.108.219v.108l-.11.219h0l-.108.11h0l-.11.108-.109.11-.109.109-.109.109h0l-.11.109h0l-.218.11h0l-.109.108h0l-.218.11h0a.312.312,0,0,0-.328.218h0c-.118.009-.255-.038-.327.109h-.654l-.219-.109h0l-.218-.11h0l-.11-.108h0c-.072-.147-.209-.1-.327-.11h0l-.218-.108h-.109l-.219-.109c-.072-.147-.209-.1-.328-.109h0l-.218-.109h-.109l-.218-.109h-.11c-.168-.086-.26-.329-.555-.268.205.314.387.594.572.869.018.027.061.035.092.052h0c.011.118-.037.255.11.327h0l.109.218a7.386,7.386,0,0,1,.109,1.311c-.147.072-.1.209-.109.327h-.109v.218l-.11.218a4.41,4.41,0,0,0-.33.342,4.466,4.466,0,0,1-1.076.971,66.858,66.858,0,0,0,21.091,7.842c.173-.178.341-.358.511-.538l.109-.109.109-.109.11-.11.109-.217.109-.11.218-.109a1.9,1.9,0,0,1,1.167-.971c.323-.107.642-.226.96-.348a.908.908,0,0,0,.235-.122c.452-.356.9-.715,1.348-1.074h0l.11-.11h0l.109-.109h0a.876.876,0,0,1,.655-.655h0l.111-.108.11-.106c.036,0,.071-.006.107-.007l.329-.323.326-.111v-.108l.109-.109a.97.97,0,0,0,.1-.283c.011-.451.005-.9.005-1.355a1.445,1.445,0,0,0,.434-.764c.18-.109.087-.288.111-.434l.108-.109h.1v-.109l.109-.109a.315.315,0,0,0,.219-.328l.109-.109.11-.218.434-.655c.037-.036.073-.073.109-.11l.11-.218.108-.109.219-.218v-.11h0l.109-.109h0l.11-.109h.108l.11-.108a.951.951,0,0,1,.757.05c.145.063.3.112.444.168a2.458,2.458,0,0,1,1.118,1.887c0,.043.06.087.092.127.174-.161.319-.386.516-.453a1.273,1.273,0,0,0,.624-.5,2.432,2.432,0,0,1,1.911-.956h.217l.11-.106a3.093,3.093,0,0,0,1.415-.385,3.406,3.406,0,0,0-.546-1,5.075,5.075,0,0,1-.434-.7,3.013,3.013,0,0,1,.585-.63c.205-.187.441-.34.67-.513-.181-.082-.353-.174-.534-.237a.545.545,0,0,0-.639.15,1.924,1.924,0,0,0-.476.832,1.017,1.017,0,0,1-.385.567c-.208.174-.417.342-.617.521-.266.238-.521.485-.782.728l-.219.11h-.109l-.109.108h-.109c-.118.01-.255-.039-.327.109h0c-.149.025-.327-.071-.435.109l-.218.11h0l-.219.108h-.217l-.219-.109h0c-.073-.036-.145-.072-.218-.11h0c-.023-.026-.042-.068-.07-.074-.411-.087-.825-.167-1.232-.269-.087-.021-.151-.133-.226-.2l-.327-.328c-.034-.182.087-.4-.109-.545a2.455,2.455,0,0,0-.521-1.541.373.373,0,0,0-.355-.206l-.764-.764-.109-.109a.5.5,0,0,0-.328-.435l-.11-.218h-.108l-.11-.11h0l-.109-.109h0c-.037-.036-.073-.073-.109-.11h0l-.219-.108h0l-.218-.109h0l-.219-.109h0l-.218-.11h0a4.136,4.136,0,0,1-.545-.763h0a1.718,1.718,0,0,0-.218-.983v-.218h0l.108-.11.328-.327.109-.109h0l.11-.11h0l.109-.109h0l.219-.11h0l.218-.109.109-.11h0l.11-.109h0c.036-.058.1-.114.1-.174.01-.285.01-.571,0-.856,0-.059-.066-.115-.1-.173v-.108c-.059-.4-.078-.418-.389-.435-.126-.006-.251,0-.375,0h0c-.11-.179-.288-.086-.434-.108H546a.309.309,0,0,1-.327-.218h-.218v-.11l-.11-.108-.218-.11h-.218l-.219-.109h0l-.109-.109-.11-.109-.108-.328h0l.109-.109.11-.109v-.1h.108v-.108h.109v-.218h.108v-.108h0c.147-.072.1-.21.109-.327.18-.11.087-.288.109-.434.2-.151.075-.363.109-.546v-.108c.2-.152.075-.364.109-.547v-.108c.035-.073.072-.146.108-.219v-.109l.109-.219h0l.108-.219h0l.218-.219a3.8,3.8,0,0,0-.271-.624.6.6,0,0,0-.492-.358h0l-.11-.11h0l-.109-.108h0l-.109-.11h0l-.11-.218h0l-.109-.109h0l-.11-.218-.108-.218h0c0-.123-.022-.252-.162-.27-.049,0-.111.1-.167.16h0a.313.313,0,0,0-.327.218,1.873,1.873,0,0,1-1.483-.409c-.034-.029-.1-.019-.154-.027h0l-.217-.109h0l-.11-.11h0l-.109-.108h0a.361.361,0,0,0-.51-.037.439.439,0,0,0-.037.037H540.2a4.888,4.888,0,0,0,.886.869h0c.036.181.072.364.109.545-.178.11-.087.289-.109.434v.109h-.109v.218h-.109v.109a.316.316,0,0,0-.219.327l-.108.11a.312.312,0,0,0-.219.326l-.109.11-.324.22c-.009.052,0,.123-.032.156a4.037,4.037,0,0,1-1.505,1.25c-.2-.08-.428-.179-.663-.261a1.846,1.846,0,0,0-.313-.054,1.25,1.25,0,0,0-.655-.327l-.218-.11a2.2,2.2,0,0,0-.44-.363,3.142,3.142,0,0,1-.917-.716.985.985,0,0,0-.173-.121v-.216l-.11-.11-.108-.109-.218-.218h-.109l-.109-.11h0a2.546,2.546,0,0,0,.11-.981h0a1.078,1.078,0,0,0,.218-.546l.764-.764.109-.109h0c.182-.035.4.087.546-.109.148-.026.326.069.434-.11h0c.118-.009.255.037.328-.109h0c.119-.009.255.037.329-.109h.108c.208-.02.429.052.608-.057.055-.4.107-.772.159-1.143l.108-.109h.217l.109-.109h0v-.218h0l.109-.109h0l.109-.11h0l.109-.218h0l.11-.218.109-.218v-.109q.189-.109,0-.219c-.11-.18-.288-.087-.435-.109a.26.26,0,0,0-.312-.185l-.347.4h0l-.11.109h0a.68.68,0,0,0-.655.328h0l-.218.109h0c-.118.01-.255-.038-.327.11l-.218.108h0c-.119.011-.256-.037-.328.11h0c-.118.009-.255-.039-.327.109h-.328l-.109-.109h0l-.11-.218h-.109l-.109-.108h0a1.878,1.878,0,0,1-1.042.521c-.488.121-.976.239-1.469.336a1.2,1.2,0,0,1-.54,0c-.45-.124-.891-.281-1.332-.434a.772.772,0,0,1-.215-.163c-.068-.059-.121-.156-.2-.181-.623-.2-.641-.756-.764-1.252-.016-.07.007-.148-.013-.216-.1-.348-.193-.682-.679-.715a2.971,2.971,0,0,1-.86-.3,2.561,2.561,0,0,1-.931-.814c-.03-.035-.021-.1-.029-.158a2.037,2.037,0,0,1-.427-1.342,11.879,11.879,0,0,1-.009-1.348,1.552,1.552,0,0,1,.217-.8,1.066,1.066,0,0,1,.117-.574c.135-.274.236-.566.38-.834a4.093,4.093,0,0,1,1.274-1.272.45.45,0,0,1,.241-.118c.542,0,.728-.475,1.047-.768a.461.461,0,0,0,.1-.293,2.021,2.021,0,0,0-.235-1.141,1.379,1.379,0,0,1-.086-.3.839.839,0,0,0-.1-.3.554.554,0,0,1-.109-.513,7.025,7.025,0,0,0-.017-1.222,1.4,1.4,0,0,0-.1-.415v-.219h-.109v-.327c-.149-.2-.149-.233,0-.439.012-.117-.036-.254.111-.325v-.328c-.18,0-.363.014-.542,0a1.421,1.421,0,0,1-1.056-.44c-.148-.173-.38-.283-.521-.462-.284-.355-.656-.678-.608-1.206a.491.491,0,0,0,0-.108c-.077-.521-.151-.864-.869-.838l-.218.11-.11.108-.218.11-.109.108h-.109l-.219.109-.218.109-.219.109a.973.973,0,0,1-.981,0h0c-.087.01-.226-.013-.261.036-.314.449-.889.493-1.269.836q-.277.25-.569.488a1.292,1.292,0,0,1-.682.4,1.609,1.609,0,0,0-.511.167,5.271,5.271,0,0,1-2.487.362,2.972,2.972,0,0,1-.8-.115,2.548,2.548,0,0,1-.6-.343c-.148-.1-.281-.223-.424-.332a.7.7,0,0,1-.277-.384,1.946,1.946,0,0,0-.234-.486c-.029-.047-.123-.055-.188-.08h0l-.218.109a1.681,1.681,0,0,1-1.743-.111.915.915,0,0,1-.255-.2c-.321-.366-.634-.739-.95-1.109l-.109-.109-.218-.109a.38.38,0,0,0-.443.23,1.262,1.262,0,0,1-.185.331.909.909,0,0,1-.82.435,1.66,1.66,0,0,0-.681.134.663.663,0,0,1-.57-.021,1.984,1.984,0,0,0-1.672.12.554.554,0,0,0-.268.328,2.036,2.036,0,0,0,.127,1.814.954.954,0,0,0,.587-.255,15.541,15.541,0,0,1,1.455-1.029,1.079,1.079,0,0,1,.186-.1.162.162,0,0,1,.145.034.25.25,0,0,1,.038.2.529.529,0,0,1-.165.21q-.74.59-1.486,1.169c-.182.143-.37.28-.568.43-.185-.181-.36-.338-.521-.51a1.049,1.049,0,0,0-1.189-.279c-.348.109-.7.193-1.036.306a1.485,1.485,0,0,1-.8.016,1.2,1.2,0,0,0-.583-.021,3.347,3.347,0,0,1-.984.062,1.028,1.028,0,0,1-.16-.347,3.486,3.486,0,0,0-.375-1.123.972.972,0,0,0-.33-.41,10.083,10.083,0,0,1-.84-.842,1.593,1.593,0,0,1-.826-.576,2.889,2.889,0,0,0-1.553-.818.676.676,0,0,0-.872.392.583.583,0,0,0-.025.082,3.051,3.051,0,0,1-.149.348.562.562,0,0,0-.027.521,2.107,2.107,0,0,1,.032,1.529,4.9,4.9,0,0,0-.013,1.612,1.313,1.313,0,0,0,.464.877c.071.064.087.188.131.284.077.118.157.235.229.356.229.386.456.773.7,1.179a2.488,2.488,0,0,0,.367-.174c.341-.231.68-.467,1.008-.715a2.343,2.343,0,0,1,.976-.435l.218-.108h0l.219-.11h0c.078-.142.219-.127.336-.1a8.271,8.271,0,0,1,2.259.645.805.805,0,0,1,.087.062,3.78,3.78,0,0,1,.159,1.491.605.605,0,0,1-.218.521h0l.109.328.109.109.109.109.11.109.109.109.109.109.109.109.109.109.184-.045c-.174-.388-.348-.757-.5-1.13a1.952,1.952,0,0,1,.113-1.672.624.624,0,0,1,.28-.236,7.127,7.127,0,0,1,2.034-.709,3.046,3.046,0,0,1,1.5.092c.458.159.93.277,1.4.412a.389.389,0,0,0,.107.015c.561-.02,1.118.087,1.671.093a5.455,5.455,0,0,1,1.8.286,4.546,4.546,0,0,0,1.911.274,4.233,4.233,0,0,1,1.536.261,2.9,2.9,0,0,1,.768.491,1.686,1.686,0,0,1,.233.229,2.059,2.059,0,0,0,1.15.659c.118.009.255-.038.328.109h.108c.118.01.256-.038.328.109h0a.594.594,0,0,1,.546.218h.218a2.4,2.4,0,0,0,.217.119.471.471,0,0,1,.329.427v.108h-.11v.328h-.108v.327h-.11v.435h-.108v.217h0v.109l-.109.109h-.109v.109a1.1,1.1,0,0,0-.328.764,4.557,4.557,0,0,0-.273.561,3.392,3.392,0,0,0-.272,1.295l-.11.218-.109.218-.109.109h-.108v.217l-.108.11-.11.109-.108.109-.11.108-.218.111-.218.108c-.118.01-.255-.037-.327.11l-.219.109c-.118.01-.255-.037-.327.11a2.119,2.119,0,0,0-.874.434c-.187-.011-.359.01-.434.218-.228,0-.341.153-.435.328v.982c-.146.073-.1.21-.109.328-.072.145-.145.291-.218.434v.873c-.114.081-.121.164.021.205.11.031.237.039.306-.1h.328l.109.11a.78.78,0,0,1-.347.593l-.421-.047h0a1.855,1.855,0,0,1-.108-.279c-.028-.128-.111-.153-.219-.158h0l-.11.109h0l-.109.109-.109.109-.11.109-.218.109-.218.11-.218.109c-.118.01-.255-.037-.328.109l-.219.109-.218.11h-.763l-.218-.11-.219-.109a.312.312,0,0,0-.328-.218.494.494,0,0,0-.434-.328c-.174-.232-.326-.5-.655-.546l-.11-.109-.108-.109-.219-.109c-.058-.035-.13-.109-.174-.1a4.972,4.972,0,0,0-.483.205l-.109.109a.487.487,0,0,0-.325.51c.028.234-.148.373-.257.521a2.106,2.106,0,0,0-.4,1.263c-.178.109-.087.287-.109.434-.146.073-.1.209-.109.327l-.109.11H507.7v.108l-.109.109-.109.11-.11.108-.108.11-.11.109-.108.109a2.175,2.175,0,0,1-.982-.435h-.218l-.109-.109h0l-.11-.109-.109-.109c-.026-.149.07-.327-.11-.435v-.109l-.108-.218-.11-.219h0v-1.528a1.1,1.1,0,0,0,.408-.4l-.189-.037h0l-.218-.11-.218-.108h-.109l-.11-.109h-.108l-.219-.108h0l-.218-.11h0l-.11-.108h0v-.109h-.108c.012-.19-.133-.284-.241-.4-.286-.318-.571-.638-.877-.98-.2.03-.193.219-.194.4a1.12,1.12,0,0,0-.219.577c-.029.137-.065.272-.107.406V3190h-.11v.869a4.1,4.1,0,0,1-1.418.328h0l-.11-.109h0l-.108-.109h0l-.109-.109h0l-.109-.108h0l-.109-.11h0l-.109-.109h0l-.11-.11h0a.313.313,0,0,0-.219-.326h0l-.108-.11h0c-.036-.09-.072-.09-.11,0h0l-.108.11h0c-.179.109-.087.287-.11.434v.109c-.146.073-.1.21-.108.328v.109c-.147.073-.1.209-.11.328v.108l-.109.219h0l-.11.218h0l-.108.11h0l-.11.109h0l-.109.218h0l-.11.11h0a.311.311,0,0,0-.218.327v.109l-.108.219v.108l-.11.219h0c-.147.072-.1.21-.109.328-.147.072-.1.209-.11.327-.147.072-.1.21-.109.328-.147.072-.1.209-.11.327h0l-.06.061a67.656,67.656,0,0,0,17.06,17.3A1.024,1.024,0,0,0,514.777,3211.84Zm27.946-.874c-.148.072-.1.209-.11.327h0l-.109.219c-.073.145-.145.291-.218.434h0l-.11.11-.109.109h-.217v.109h-.327v.109H541.3v-.109h-.327l-.109-.109h-.109v-.108a.925.925,0,0,1-.642-.708l.642-.929.109-.109.434-.219v-.109l.11-.109h.108l.219-.11h.218l.218.109h0l.219.109h0l.406.5Zm-3.877-7.876c.422-.185.853-.347,1.279-.521.174-.072.348-.15.521-.224l1.092.109a.608.608,0,0,1,.328.654v.11l-.109.109v.109l-.11.219v.108c-.149.2-.149.235,0,.435v.109l.11.11v.108l.109.218v.328l.109.109h0c.025.149-.071.327.109.435l.109.218h0v.763h-.109v.327h-.109v.109h-.11v.219l-.108.11h0l-.11.109h0l-.108.109h0l-.11.109h0l-.109.11h0l-.109.108h0l-.109.11h0l-.11.108h0l-.108.11h0l-.11.109h0l-.109.109h-.654c-.073-.147-.21-.1-.328-.11h0l-.109-.109h0l-.109-.11h0l-.11-.109h0l-.109-.218h0l-.109-.11h0l-.111-.218h0l-.108-.109h0l-.11-.218h0l-.108-.11h0a7.863,7.863,0,0,1,.1-1.166c.044-.588.016-1.181.008-1.772,0-.076-.068-.152-.1-.227h0v-.109h-.11l-.109-.218-.109-.109v-.109a1.186,1.186,0,0,1,.274-.226Zm-2.564,14.536h0a1.318,1.318,0,0,1-.469.944l-.186-.072v-.109c-.025-.148.07-.326-.109-.434h0v-.328l.109-.108h.327c.072.147.21.1.328.109h0Zm-3.388-8.3.108-.219V3209l.109-.218v-.109l.109-.219v-.108l.109-.11v-.109l.108-.218h0l.11-.219h0l.109-.218h0a.361.361,0,0,0,.035-.511.286.286,0,0,0-.035-.035v-.109c-.01-.118.038-.255-.109-.327l-.11-.219v-.109l-.108-.11v-.108a6.5,6.5,0,0,1,1.824-.677,2.557,2.557,0,0,1,1.714.223.7.7,0,0,1,.495.85c-.009.1-.062.207-.072.312-.021.24-.132.494.076.711l.108.11.11.218h0l.109.109.109.218v.109l.109.219c.009.118-.039.255.109.327v.869h-.109v.545l-.108.218a.316.316,0,0,0-.219.326l-.109.111-.325.22v.216l-.108.109-.109.11a.5.5,0,0,0-.328.434l-.109.109c-.223.23-.445.463-.67.7-.1.1-.207.2-.311.291l-.219-.108-.218-.11-.11-.108-.109-.218a2.109,2.109,0,0,1-.855-.727c-.266-.336-.521-.68-.782-1.02h-.11l-.108-.11v-.217H532.9v-.764Zm-6.442-10.371h.109l.11.108h0l.218.11h0l.11.109.108.109h.109l.219.108c.072.148.209.1.328.11.126.216.26.426.373.651a.559.559,0,0,1-.121.687,2.019,2.019,0,0,1-.788.624.316.316,0,0,0-.229.329h0l-.108.11-.11.109-.218.218h0l-.109.11h0l-.11.108h0l-.109.11h0l-.218.109h-.11l-.109.109h-.109l-.218.108h0l-.218.109-.219.11h-.108l-.11.108h-.109l-.109.109h0l-.109.109h-.869l-.11-.109v-.111l-.109-.108h-.219l-1.092-.547-.109-.108-.109-.11-.109-.108-.109-.11-.11-.218-.108-.109v-1.847c-.1-.548.26-.848.65-1.078a4.864,4.864,0,0,1,1.679-.7,1.44,1.44,0,0,1,.737-.021c.056.02.137-.028.206-.046v-.007h.108l.219.11h.109l.109.108h.11l.218.11h.108l.11.109h.109l.11.107h.108l.11.109h.108Zm-5.785-19.54c-.043-.3-.067-.608-.135-.9a1.374,1.374,0,0,1,.377-1.129.929.929,0,0,1,.856-.375c.506.017,1.014.005,1.523.005h.107l.111-.108a.169.169,0,0,0,.054,0,1.628,1.628,0,0,1,1.18-.134,3,3,0,0,1,1.081.415c.154.119.334.2.495.315a.449.449,0,0,1,.247.39l.327.328a2.623,2.623,0,0,1,1.418.434h0a.193.193,0,0,1,.22.162.208.208,0,0,1,0,.066v.209a2.681,2.681,0,0,0-.3.36,1.274,1.274,0,0,1-1.048.736c-.266.018-.295.218-.286.435v.108c-.119.011-.256-.037-.328.11h-.21c-.149.025-.327-.07-.435.109h-.982a2.231,2.231,0,0,0-.873.109c-.057-.035-.115-.1-.17-.1a3.445,3.445,0,0,0-.45.08l-.364-.417h-.217l-.218-.109-.218-.109a4.49,4.49,0,0,0-.356-.284c-.2-.132-.418-.247-.627-.37-.276-.074-.574-.083-.769-.329Z" fill="url(#linear-gradient-2)"/>
    <path id="Path_122" data-name="Path 122" d="M504.078,3179.747l-.109-.11.108.11Z" fill="url(#linear-gradient-50)"/>
    <path id="Path_123" data-name="Path 123" d="M518.085,3205.634a.452.452,0,0,1-.053-.054c.02.143-.033.146-.086.146h.173A.892.892,0,0,1,518.085,3205.634Z" fill="url(#linear-gradient-51)"/>
    <path id="Path_124" data-name="Path 124" d="M501.678,3188.261l-.11.218.11-.218c.1-.362.207-.724.315-1.085C501.885,3187.537,501.782,3187.9,501.678,3188.261Z" fill="url(#linear-gradient-52)"/>
    <path id="Path_125" data-name="Path 125" d="M604.291,3200.923c-.231-.269-.586-.209-.874-.328l-.109-.108-.434-.219-.109-.109-.219-.109a.308.308,0,0,0-.327-.218h0l-.109-.11-.109-.108c-.314-.21-.372-.21-.546,0l-.109.108-.109.218-.109.11-.11.109h-.108l-.219.109-.8.13a2.413,2.413,0,0,1-.839.814,16.732,16.732,0,0,0-1.482.973,3.837,3.837,0,0,1-1.521.623c-.23.031-.461.057-.7.081s-.3.071-.342.328a1.309,1.309,0,0,0,0,.217H594.9v.218l-.109.218-.11.109h0l-.108.218-.11.11-.109.108-.218.11h0l-.109.109-.109.109h-.11l-.109.109-.109.11-.109.108-.218.11-.11.109h-1.2c-.183-.2-.394-.087-.618-.087-.007.245.15.375.242.543a8.829,8.829,0,0,1,.453,1.031,1.509,1.509,0,0,1,.033.4.4.4,0,0,0-.344.444.389.389,0,0,0,.015.068l.218.328v.108l.11.219v.218l.109.219V3209c.035.182-.087.4.109.546v.218c0,.18-.01.36.005.538a.762.762,0,0,0,.1.226v.218h0l-.109.11-.109.108-.109.11-.11.109-.109.109a.31.31,0,0,0-.327.219l-.218.108-.11.11-.218.109-.36.017a5.51,5.51,0,0,1-1.576,1.564,1.87,1.87,0,0,1-.435.185,2.508,2.508,0,0,0-1.339.747.782.782,0,0,0-.635.586,3.793,3.793,0,0,0-.094.653,67.629,67.629,0,0,0,17.8-14.667Z" fill="url(#linear-gradient-2)"/>
    <path id="Path_126" data-name="Path 126" d="M599.487,3189.461a.215.215,0,0,0-.094-.087.215.215,0,0,1,.094.087Z" fill="url(#linear-gradient-54)"/>
    <path id="Path_127" data-name="Path 127" d="M499.582,3181.218c-.363-.173-.731-.333-1.093-.5l-.689.8.166.187h1.526l.111-.217.109-.109h0C499.669,3181.327,499.639,3181.245,499.582,3181.218Z" fill="url(#linear-gradient-55)"/>
    <path id="Path_128" data-name="Path 128" d="M500.149,3181.6h-.217l-.22.108.22-.108Z" fill="url(#linear-gradient-56)"/>
    <path id="Path_129" data-name="Path 129" d="M605.023,3175.1a1.1,1.1,0,0,1-.4-.66A1.1,1.1,0,0,0,605.023,3175.1Z" fill="url(#linear-gradient-57)"/>
    <path id="Path_130" data-name="Path 130" d="M609.022,3135.095a.173.173,0,0,1-.147-.107A.173.173,0,0,0,609.022,3135.095Z" fill="url(#linear-gradient-58)"/>
    <path id="Path_131" data-name="Path 131" d="M519.362,3182.584h0l.108-.219Z" fill="url(#linear-gradient-59)"/>
    <path id="Path_132" data-name="Path 132" d="M544.8,3200.054" fill="#fff"/>
    <path id="Path_133" data-name="Path 133" d="M537.445,3209.943c-.029.121-.063.242-.087.33l-.818.816c.268-.268.538-.537.825-.8C537.384,3210.185,537.416,3210.064,537.445,3209.943Z" fill="url(#linear-gradient-60)"/>
    <path id="Path_134" data-name="Path 134" d="M522.528,3207.582" fill="#fff"/>
    <path id="Path_135" data-name="Path 135" d="M597.048,3106.4a3.619,3.619,0,0,0-1.19.723,2.818,2.818,0,0,1-.415.252c-.475.261-.962.5-1.427.775a4.407,4.407,0,0,1-1.078.317v.654a3.294,3.294,0,0,0,.379.184c.042.015.11-.048.166-.075h.218a1.276,1.276,0,0,0,.231.106,3.218,3.218,0,0,0,.522.1c.444.03.64.426.955.637a.31.31,0,0,1,.093.192,7.438,7.438,0,0,1,.149.948,14.363,14.363,0,0,1,0,1.468,3.652,3.652,0,0,1-.156.9,1.514,1.514,0,0,1-1.351,1,2.165,2.165,0,0,0-.323.019c-.087.028-.152.117-.282.226.233.08.4.14.56.191a4.882,4.882,0,0,1,.818.253,1,1,0,0,1,.544.638c.077.293.2.573.306.859v.109c-.2.229-.1.486-.066.737.019.119.044.236.066.354v.434c-.065.122-.179.242-.185.367a1.245,1.245,0,0,1-.6,1.166,2.111,2.111,0,0,1-1.308.434.753.753,0,0,0-.2.064c.069.062.112.133.157.135a3.989,3.989,0,0,1,1.509.58.61.61,0,0,1,.2.242,3.141,3.141,0,0,1,.4,1,.826.826,0,0,1-.046.53c-.057.129-.087.285.073.387l.108.11h0l.11.108h1.092c.076.037.153.106.228.1a.9.9,0,0,1,.508.161c.33.2.654.4.6.869a6.571,6.571,0,0,1,.189,2.357,2.014,2.014,0,0,1-.086.414,1.466,1.466,0,0,0,.309-.042,1.107,1.107,0,0,0,.222-.15c.025-.313.289-.447.488-.62.231-.2.49-.368.732-.554a.851.851,0,0,0,.3-.51,1.843,1.843,0,0,0-.166-.151.845.845,0,0,1-.382-1c.1-.492.191-.987.29-1.477a1.154,1.154,0,0,1,.1-.353,1.96,1.96,0,0,0,.193-1.609,1.529,1.529,0,0,1-.027-.27v-.219c.033-.04.1-.081.1-.121a5.355,5.355,0,0,0-.044-.749c-.076-.475-.213-.944-.261-1.421a6.229,6.229,0,0,0-.285-1.416.91.91,0,0,1,.118-.868c.158-.218.338-.418.505-.629a.868.868,0,0,1,.845-.364,3.351,3.351,0,0,0,.649,0,.72.72,0,0,0,.231-.1c.072-.036.145-.073.218-.108h.109c.174-.05.348-.087.512-.148a2.7,2.7,0,0,1,1.153-.174c.21.021.418.07.627.106v.11h.109l.328.434h.109v.11c.072.146.145.291.218.434v.109l.11.218a1.4,1.4,0,0,1-.192.934c-.028.039-.018.1-.027.158l-.109.109v.109l-.109.109c-.148.072-.1.209-.11.328l-.108.109c-.157.278-.322.552-.465.838a1.556,1.556,0,0,0-.082.363l-.221.206a1.341,1.341,0,0,0,.106.164c.26.3.505.616.79.891.226.22.379.545.745.594a.308.308,0,0,0,.327.218.659.659,0,0,0,.546.328l.11.109h.108l.11.11h.109l.109.109.109.109h.11c.165.18.353.087.547.06a2.74,2.74,0,0,1,.7-.049c.5.051.992.139,1.489.208.212.029.3.1.32.3a10.487,10.487,0,0,1-.006,1.4.279.279,0,0,1-.288.268.291.291,0,0,1-.053-.007,1.037,1.037,0,0,1-.254-.087,7.984,7.984,0,0,0-.944-.4c-.261-.072-.443-.333-.744-.275a.311.311,0,0,0-.327-.219,1.037,1.037,0,0,0-.44-.435c-.322.064-.618.128-.916.18-.831.144-1.6.531-2.452.6-.081.006-.154.132-.231.2l-.218.109a.486.486,0,0,0-.434.328l-.218.109a2.053,2.053,0,0,0-1.191.869c.1.23.261.225.426.221a.31.31,0,0,0,.328.218c.077.211.249.231.434.219l.218.11h.109a1.186,1.186,0,0,0,.206.246c.388.261.773.536,1.181.763a3.054,3.054,0,0,1,.738.636c.183.2.34.422.521.618a9.1,9.1,0,0,0,.814.807,1.349,1.349,0,0,1,.459,1,3.723,3.723,0,0,1-.377,2.161.834.834,0,0,0-.053.209v.109l-.109.109a.642.642,0,0,0,.109.874c.026.147-.071.326.109.434v1.2h.109v.109h1.529l.758-.134a.989.989,0,0,0-.051-.3,3.331,3.331,0,0,1-.376-1.825,3.473,3.473,0,0,1,.095-.58c.041-.189.139-.369.025-.571a.272.272,0,0,1,.007-.211,3.441,3.441,0,0,0,.081-1.238.865.865,0,0,0-.1-.359,5.852,5.852,0,0,0-.261-.536,1.192,1.192,0,0,1-.183-.723.641.641,0,0,0-.025-.322,1.339,1.339,0,0,1,.1-1.1,2.869,2.869,0,0,1,1.37-1.39c.124-.075.261-.13.428-.214.347.261.705.521,1.053.8.294.237.563.507.863.736a1.888,1.888,0,0,1,.461.522c.173.276.326.561.49.844a.687.687,0,0,0,.57-.064,67.361,67.361,0,0,0-9.875-15.179.58.58,0,0,1-.234.133,4.956,4.956,0,0,1-1.763.2.282.282,0,0,1-.308-.253.479.479,0,0,1,0-.053c-.014-.29-.014-.581,0-.869a.625.625,0,0,1,.11-.294c.166-.256.329-.512.494-.768a67.452,67.452,0,0,0-5.18-5.009A1.655,1.655,0,0,1,597.048,3106.4Z" fill="url(#linear-gradient-2)"/>
    <path id="Path_136" data-name="Path 136" d="M519.253,3182.8h0l.109-.218Z" fill="url(#linear-gradient-62)"/>
    <path id="Path_137" data-name="Path 137" d="M604.073,3193.391" fill="#fff"/>
    <path id="Path_138" data-name="Path 138" d="M521,3205.29l-.109.273Z" fill="url(#linear-gradient-63)"/>
  </g>
</svg>
