<svg xmlns="http://www.w3.org/2000/svg" width="167.573" height="30.837" viewBox="0 0 167.573 30.837">
  <g id="Group_411" data-name="Group 411" transform="translate(-477.971 -3269.73)">
    <path id="Path_140" data-name="Path 140" d="M630.847,3290.691l-1.228-1.229,13.395-13.394a2.693,2.693,0,0,0-3.823-3.8l-10.562,10.561h0a1.737,1.737,0,0,1,0-2.457h0l9.209-9.209a4.7,4.7,0,0,1,3.313-1.437,4.431,4.431,0,0,1,3.094,7.566Z" fill="#d8a028"/>
    <path id="Path_141" data-name="Path 141" d="M612.863,3300.567v-1.737a17.727,17.727,0,0,0,12.615-5.226l1.229,1.229A19.453,19.453,0,0,1,612.863,3300.567Z" fill="#d8a028"/>
    <path id="Path_142" data-name="Path 142" d="M607.266,3300.567H477.971a1.737,1.737,0,0,1,1.737-1.737H607.266Z" fill="#d8a028"/>
  </g>
</svg>
