<svg xmlns="http://www.w3.org/2000/svg" width="98.979" height="65.405" viewBox="0 0 98.979 65.405">
  <g id="Group_443" data-name="Group 443" transform="translate(-699.952 -3692.681)">
    <g id="Group_442" data-name="Group 442">
      <g id="Group_439" data-name="Group 439">
        <path id="Path_2772" data-name="Path 2772" d="M744.372,3711.866" fill="#fff"/>
        <g id="Group_427" data-name="Group 427">
          <g id="Group_420" data-name="Group 420">
            <path id="Path_2773" data-name="Path 2773" d="M743.552,3713.637a9.137,9.137,0,0,0,4.342,1.824v-1.294a7.874,7.874,0,0,1-3.484-1.485Z" fill="#fff"/>
          </g>
          <g id="Group_421" data-name="Group 421">
            <path id="Path_2774" data-name="Path 2774" d="M747.253,3711.952h-2.132l-.624.658a10.37,10.37,0,0,0,3.4,1.289v-1.626A.8.8,0,0,0,747.253,3711.952Z" fill="#fff"/>
          </g>
          <g id="Group_422" data-name="Group 422">
            <path id="Path_2775" data-name="Path 2775" d="M751.8,3701.072a1.229,1.229,0,0,0-1.736.018,4.1,4.1,0,0,1-1.519.914l-.525.505a4.625,4.625,0,0,0,2.3-1.187.868.868,0,1,1,1.232,1.224,5.115,5.115,0,0,1-.857.691,1.4,1.4,0,0,1,.63.086c.18-.216.344-.4.47-.529A1.218,1.218,0,0,0,751.8,3701.072Z" fill="#fff"/>
          </g>
          <g id="Group_424" data-name="Group 424">
            <g id="Group_423" data-name="Group 423">
              <path id="Path_2776" data-name="Path 2776" d="M751.3,3702.3a.521.521,0,1,0-.734-.74,5.154,5.154,0,0,1-2.976,1.373h-.02l-.263.252a.269.269,0,0,0,.222.461l2.26-.3A5.535,5.535,0,0,0,751.3,3702.3Zm-1.422.614a6.333,6.333,0,0,1-2.327.722.173.173,0,0,1-.142-.05.168.168,0,0,1-.05-.1.173.173,0,0,1,.153-.192,5.97,5.97,0,0,0,2.2-.683.174.174,0,1,1,.166.306Zm1.184-.868a4,4,0,0,1-.557.474.174.174,0,0,1-.224-.018l-.019-.021a.175.175,0,0,1,.039-.243,3.756,3.756,0,0,0,.505-.427.174.174,0,0,1,.245-.01A.17.17,0,0,1,751.066,3702.049Z" fill="#fff"/>
            </g>
          </g>
          <g id="Group_425" data-name="Group 425">
            <path id="Path_2777" data-name="Path 2777" d="M753.271,3699.6a3.119,3.119,0,0,0-.96-.659,2.039,2.039,0,0,0-.572.157.173.173,0,0,1-.131.317,2.635,2.635,0,0,0-.3-.059c-.051.041-.1.084-.148.13l-.2.193a2.234,2.234,0,0,1,1.573.657,2.265,2.265,0,0,1,.655,1.752.174.174,0,1,1-.347-.023,1.91,1.91,0,0,0-.554-1.483,1.889,1.889,0,0,0-1.356-.557,1.931,1.931,0,0,0-.372.039l-1.173,1.129a2.943,2.943,0,0,0,.424-.344,1.563,1.563,0,1,1,2.231,2.189c-.093.1-.238.255-.4.453a1.477,1.477,0,0,1,.179.151.587.587,0,0,0,.077.064c.124-.141.237-.259.325-.351l.066-.068a1.948,1.948,0,0,0,.376-.53.173.173,0,1,1,.313.149,2.231,2.231,0,0,1-.44.623l-.064.066c-.06.063-.132.138-.211.224a.6.6,0,0,0,.415-.177l.637-.637a2.608,2.608,0,0,0-.532-2.914,2.638,2.638,0,0,0-.513-.4.173.173,0,1,1,.177-.3,2.949,2.949,0,0,1,1.394,3.086l.131-.131a2.035,2.035,0,0,0,.262-.322.167.167,0,0,1-.028-.094A3.182,3.182,0,0,0,753.271,3699.6Z" fill="#fff"/>
          </g>
          <g id="Group_426" data-name="Group 426">
            <path id="Path_2778" data-name="Path 2778" d="M753.969,3699.512h0a1.994,1.994,0,0,0-.855-.506,3.56,3.56,0,0,1,.4.347,3.472,3.472,0,0,1,.995,1.994A2,2,0,0,0,753.969,3699.512Z" fill="#fff"/>
          </g>
        </g>
        <g id="Group_428" data-name="Group 428">
          <path id="Path_2779" data-name="Path 2779" d="M748.878,3719.436" fill="#fff"/>
        </g>
        <g id="Group_429" data-name="Group 429">
          <path id="Path_2780" data-name="Path 2780" d="M750.112,3719.436" fill="#fff"/>
        </g>
        <path id="Path_2781" data-name="Path 2781" d="M773.207,3707.143" fill="#fff"/>
        <g id="Group_430" data-name="Group 430">
          <path id="Path_2782" data-name="Path 2782" d="M750,3719.436" fill="#fff"/>
        </g>
        <path id="Path_2783" data-name="Path 2783" d="M764.663,3709.6c-.52.84-5.566,8.925-8.007,9.825a.028.028,0,0,1-.035-.039l2.058-4.089a.028.028,0,0,0-.045-.032,21.9,21.9,0,0,1-5.163,3.834,7.322,7.322,0,0,0-3.854,5.391l-.148.966a.028.028,0,0,1-.056,0l-.147-.966a7.324,7.324,0,0,0-3.855-5.391,21.861,21.861,0,0,1-5.162-3.834.028.028,0,0,0-.046.032l2.059,4.089a.028.028,0,0,1-.035.039c-2.441-.9-7.488-8.985-8.007-9.825a.028.028,0,0,0-.052.012c-.079.932-.364,9.534,15.179,16.507a.029.029,0,0,1,.016.03h0a.028.028,0,0,0,.039.03l.028-.012a.031.031,0,0,1,.023,0l.027.012a.028.028,0,0,0,.04-.03h0a.028.028,0,0,1,.016-.03c15.543-6.973,15.258-15.575,15.179-16.507A.028.028,0,0,0,764.663,3709.6Z" fill="#fff"/>
        <g id="Group_431" data-name="Group 431">
          <path id="Path_2784" data-name="Path 2784" d="M748.771,3719.436" fill="#fff"/>
        </g>
        <path id="Path_2785" data-name="Path 2785" d="M725.676,3707.143" fill="#fff"/>
        <g id="Group_436" data-name="Group 436">
          <g id="Group_433" data-name="Group 433">
            <g id="Group_432" data-name="Group 432">
              <path id="Path_2786" data-name="Path 2786" d="M758.515,3715.405c.626-.5,1.287-1.063,1.966-1.67,1.056-.943,2.152-1.991,3.256-3.115l.9-.918-.69,1.086c-.364.573-1.666,2.593-3.11,4.5-1.825,2.414-3.205,3.782-4.1,4.065l-.31.1,2.067-4.031Zm2.045-.213c.913-1.209,1.768-2.461,2.357-3.35-.785.772-1.561,1.5-2.317,2.176-.665.594-1.313,1.145-1.926,1.637l-1.693,3.3A15.106,15.106,0,0,0,760.56,3715.192Z" fill="#fff"/>
            </g>
          </g>
          <g id="Group_435" data-name="Group 435">
            <g id="Group_434" data-name="Group 434">
              <path id="Path_2787" data-name="Path 2787" d="M740.346,3715.405c-.626-.5-1.287-1.063-1.966-1.67-1.056-.943-2.152-1.991-3.256-3.115l-.9-.918.69,1.086c.364.573,1.666,2.593,3.11,4.5,1.825,2.414,3.205,3.782,4.1,4.065l.31.1-2.067-4.031Zm-2.045-.213c-.913-1.209-1.768-2.461-2.357-3.35.785.772,1.561,1.5,2.317,2.176.665.594,1.313,1.145,1.926,1.637l1.693,3.3A15.106,15.106,0,0,1,738.3,3715.192Z" fill="#fff"/>
            </g>
          </g>
        </g>
        <g id="Group_437" data-name="Group 437">
          <path id="Path_2788" data-name="Path 2788" d="M765.031,3701.012l-4.261-4.474-.006-.006-.122-.122a1.381,1.381,0,0,1-.232.308l-.635.635.073.073,4.262,4.475,1.052,1.052.905-.9Z" fill="#fff"/>
          <path id="Path_2789" data-name="Path 2789" d="M759.567,3697.783l-.111-.111-.9.9.112.112,4.188,4.154a.693.693,0,0,1-.965,1l-2.333-2.209a2.786,2.786,0,0,0-3.885.054l-7.334,7.334a1.281,1.281,0,0,0,1.81,0l6.429-6.429a1.5,1.5,0,0,1,2.1-.029l2.332,2.208a1.975,1.975,0,0,0,.551.369l-1.456,1.455-.724-.724a2.768,2.768,0,0,0-2.059-.815,2.821,2.821,0,0,0-1.9.835l-2.323,2.323a2.466,2.466,0,0,0-.722,1.743v3.628l-.124.055v-3.61a1.28,1.28,0,0,0-1.28,1.28v2.749a7.773,7.773,0,0,1-.926.162.638.638,0,0,1-.707-.636v-1.255a2.081,2.081,0,0,0-2.081-2.082.3.3,0,0,1-.169-.05.426.426,0,0,0-.541.056l-1.275,1.274h1.985a.8.8,0,0,1,.8.8v2.569a.64.64,0,0,0,.607.639c.168.009.336.013.5.013a9.15,9.15,0,0,0,6.478-2.686l8.124-8.124-.008-.008c.023-.023.046-.047.068-.071a1.972,1.972,0,0,0-.074-2.725Zm-4.83,14.174a7.921,7.921,0,0,1-1.086.905v-2.908a1.186,1.186,0,0,1,.347-.838l2.344-2.344a1.5,1.5,0,0,1,1.183-.436,1.535,1.535,0,0,1,.963.452l.709.709Z" fill="#fff"/>
          <path id="Path_2790" data-name="Path 2790" d="M751.4,3704.325a1.047,1.047,0,0,0-1.1-.558l-3.7.6a1.047,1.047,0,0,0-.575.294h0l-4.8,4.8-2.856-2.752a.272.272,0,0,1-.083-.194.267.267,0,0,1,.08-.195.548.548,0,0,1,.775,0l.574.574a1.708,1.708,0,0,0,1.22.51,1.662,1.662,0,0,0,1.163-.489l13.04-13.04a.7.7,0,0,0-.989-.988L741.1,3705.925a.273.273,0,0,1-.386,0l-.571-.571a1.986,1.986,0,0,0-1.42-.593,1.931,1.931,0,0,0-1.356.57,1.671,1.671,0,0,0,.022,2.384l3.053,2.942,1.9,1.84.2.2a1.071,1.071,0,0,0,.738.321,1.044,1.044,0,0,0,.76-.307l7.164-7.164A1.046,1.046,0,0,0,751.4,3704.325Zm-7.453,6.628a.838.838,0,0,1-1.174.01h0a.837.837,0,0,1-.01-1.194l4.124-4.124,2.823-.455Z" fill="#fff"/>
        </g>
        <path id="Path_2791" data-name="Path 2791" d="M792.2,3709.911l.1-.1.041-.044.033-.036.266-.292.532-.583,2.122-2.336,2.117-2.339,1.526-1.687-2.362.152c-1.2.077-2.395.162-3.592.252s-2.39.183-3.584.289-2.388.218-3.582.336-2.387.24-3.579.382c-2.385.278-4.768.584-7.149.986-1.191.2-2.38.423-3.571.7-.6.14-1.193.293-1.794.482-.15.045-.3.1-.453.149s-.3.108-.458.173a5.623,5.623,0,0,0-.891.44l-.127.052-.406-1.119a.719.719,0,0,1-.081-.029.475.475,0,0,1-.3-.467.415.415,0,0,0,0-.087.415.415,0,0,1,0,.087.475.475,0,0,0,.3.467.719.719,0,0,0,.081.029h0l-.546-1.507-.431.5h0a.556.556,0,0,1,.145,0,.524.524,0,0,1,.412.284.524.524,0,0,0-.412-.284.556.556,0,0,0-.145,0l-.708.823a82.461,82.461,0,0,1-6.222,6.365,36.58,36.58,0,0,1-5.28,4.111,8.179,8.179,0,0,1-3.507,1.4v0h-2.5v0a8.175,8.175,0,0,1-3.507-1.4,36.579,36.579,0,0,1-5.281-4.111,82.447,82.447,0,0,1-6.222-6.365l-.708-.823a.555.555,0,0,0-.145,0,.555.555,0,0,1,.145,0h0l-.43-.5-.546,1.507h0a.719.719,0,0,0,.081-.029.492.492,0,0,0,.292-.373.492.492,0,0,1-.292.373.719.719,0,0,1-.081.029l-.407,1.119-.126-.052a5.631,5.631,0,0,0-.892-.44c-.154-.065-.3-.116-.458-.173s-.3-.1-.452-.149c-.6-.189-1.2-.342-1.794-.482-1.192-.278-2.381-.5-3.572-.7-2.38-.4-4.764-.708-7.148-.986-1.192-.142-2.386-.262-3.58-.382s-2.387-.23-3.581-.336-2.389-.2-3.585-.289-2.389-.175-3.592-.252l-2.361-.152,1.526,1.687,2.117,2.339,2.122,2.336.532.583.265.292.034.036.041.044.094.1c.066.061.129.124.2.181l.052.042-.778.115c-.322.049-.645.1-.967.154l-.483.077-.242.039-.121.02a1.641,1.641,0,0,0-.712.331,1.476,1.476,0,0,0-.526.877,1.437,1.437,0,0,0,.008.531c.01.044.021.088.033.131s.03.084.046.126l.013.031.012.027.016.035.034.069a2.878,2.878,0,0,0,.144.27,4.6,4.6,0,0,0,.329.485,6.759,6.759,0,0,0,.747.809,9.6,9.6,0,0,0,.807.68,15.778,15.778,0,0,0,1.71,1.133l.142.079a9.821,9.821,0,0,0,1.5.363.478.478,0,0,1,.217.872l-.985.681a2.747,2.747,0,0,0-.586,1.069,2.6,2.6,0,0,0,.207,1.934c.013.025.027.048.04.073l.021.036.019.03c.025.039.048.079.074.117q.068.1.141.2a9.582,9.582,0,0,0,1.544,1.359,7.874,7.874,0,0,0,.993.5,10.253,10.253,0,0,0,1.883.568,11.841,11.841,0,0,0,1.948.235h.005c.137-.014.276-.031.416-.052a.534.534,0,0,1,.307.043h0l.175-.016-.029.119a.465.465,0,0,1,.139.4l-.211,1.516a3.491,3.491,0,0,0,1.033,1.781,3.27,3.27,0,0,0,.782.533,3.643,3.643,0,0,0,.873.3,4.528,4.528,0,0,0,.861.092,5.12,5.12,0,0,0,1.636-.25,5.389,5.389,0,0,0,.748-.311c.063-.033.126-.068.189-.1v.218l0,.017a5.9,5.9,0,0,0,.275,1.2,3.345,3.345,0,0,0,.7,1.164c.041.044.09.084.135.126s.09.085.141.122l.154.109c.027.018.052.037.079.053l.083.047.167.09c.058.026.117.05.176.073l.088.036.089.028.18.052a3.282,3.282,0,0,0,.715.09c.118.007.231,0,.346-.006.057,0,.113-.01.17-.016s.113-.01.169-.02a4.21,4.21,0,0,0,1.277-.4l.147-.076.142-.084.038-.022v0l0,.056,0,.024a4,4,0,0,0,.184.9.466.466,0,0,1,.149.341v.026a2.661,2.661,0,0,0,1.383,1.329,3.168,3.168,0,0,0,.648.2,3.3,3.3,0,0,0,1.336-.007l.043-.01c.031.072.064.143.1.214s.063.124.1.186h0a3.945,3.945,0,0,0,.479.7,3.868,3.868,0,0,0,.3.306l-.441-.769v0l.441.769a3.386,3.386,0,0,0,.559.418,3.469,3.469,0,0,0,1.05.412c.09.023.181.036.271.05s.18.021.269.03a1.184,1.184,0,0,0,.136.007l.138,0c.046,0,.092,0,.137,0l.138-.009a3.552,3.552,0,0,0,1.056-.225,3.5,3.5,0,0,0,1.428-1c0,.054,0,.108,0,.162.005.083.007.163.015.249l.028.264c.015.088.033.178.05.268s.049.18.075.271c.016.052.035.1.055.156l.533.595-.533-.595a2.643,2.643,0,0,0,.559.889,2.881,2.881,0,0,0,.726.547h0a2.961,2.961,0,0,0,.361.162c.051.018.1.037.153.054s.1.029.153.044c.1.029.205.049.308.069.051.01.1.016.153.023s.1.014.161.018a3.061,3.061,0,0,0,.984-.077l.017.024a4.574,4.574,0,0,0,.43-.169.536.536,0,0,1,.692.224l.538,1.033a1.518,1.518,0,0,0,1.1.8l.008,0a3.526,3.526,0,0,0,.915.026,2.465,2.465,0,0,0,.927-.272,2.352,2.352,0,0,0,.33-.21,2.474,2.474,0,0,0,.48.912c.036.042.074.082.112.122l.058.06.066.059c.046.039.09.078.139.115s.11.076.166.112l.086.052c.029.017.06.031.09.047.061.03.123.059.185.087s.128.048.193.069a1.517,1.517,0,0,0,.2.056q.1.023.2.042c.068.011.136.015.2.022l.1.008h.1c.068,0,.136,0,.2,0a2.692,2.692,0,0,0,.777-.184,1.312,1.312,0,0,0,.179-.082c.058-.03.118-.058.173-.093a2.284,2.284,0,0,0,.313-.227,1.7,1.7,0,0,0,.2-.186l.025-.443.178-3.206c-.119.339-.232.648-.366.943s-.273.573-.425.841c-.075.135-.153.266-.233.4l-.06.1a.076.076,0,0,1-.014.018l-.013.014-.024.027a.83.83,0,0,1-.1.1.322.322,0,0,1-.054.04.4.4,0,0,1-.053.038l-.057.033a.635.635,0,0,1-.058.028,1.235,1.235,0,0,1-.117.046c-.019.008-.042.01-.061.016a.307.307,0,0,1-.061.013l-.06.011c-.02,0-.041,0-.061,0l-.029,0H747.5a.35.35,0,0,0-.057-.007l-.028,0-.028-.007-.054-.01a.458.458,0,0,0-.052-.016.206.206,0,0,1-.05-.018c-.016-.008-.034-.012-.05-.019a.434.434,0,0,0-.047-.026l-.025-.011-.022-.016a.256.256,0,0,0-.048-.028c-.018-.013-.04-.029-.061-.042l-.032-.02-.036-.027-.074-.05c-.206-.147-.455-.327-.746-.507-.107-.066-.221-.132-.343-.2a1.515,1.515,0,0,0,.047-.15c.008-.035.02-.069.026-.1l.017-.106a1.668,1.668,0,0,0,.02-.212l0-.052v-3.14l.007-1.415-.225,1.4-.232,1.4-.232,1.4-.029.175-.015.087-.007.044-.008.035a1.072,1.072,0,0,1-.038.137l-.022.066c-.008.022-.02.043-.029.064a1.323,1.323,0,0,1-.327.442,1.354,1.354,0,0,1-.471.265,1.3,1.3,0,0,1-.521.06,2.157,2.157,0,0,1-1.077-.356,2.787,2.787,0,0,1-.774-.832,4.675,4.675,0,0,1-.3-.581,2.446,2.446,0,0,0,.213-.294l.084-.144c.028-.048.048-.1.072-.149s.047-.1.064-.151l.051-.156.024-.078.018-.079.032-.159c.01-.052.013-.106.019-.159l.007-.08,0-.04v-.033c.006-.608.005-1.215-.014-1.824s-.043-1.219-.089-1.83-.1-1.224-.2-1.839c-.209.59-.376,1.184-.533,1.779s-.295,1.192-.421,1.789-.241,1.2-.345,1.8l0,.014,0,.008,0,.017-.01.032c-.007.022-.009.044-.018.065s-.018.041-.026.062l-.011.031-.016.029c-.011.019-.021.038-.031.058s-.024.036-.035.055-.022.037-.037.054l-.042.05a.334.334,0,0,1-.044.048c-.015.015-.03.03-.044.046l-.051.042a.284.284,0,0,1-.051.04,1.119,1.119,0,0,1-.108.069.626.626,0,0,1-.056.031l-.059.026a1.085,1.085,0,0,1-.486.088.84.84,0,0,1-.123-.012.581.581,0,0,1-.078-.012c-.028,0-.058-.008-.085-.014-.055-.013-.111-.02-.163-.035-.026-.007-.053-.011-.078-.019s-.051-.014-.076-.021c-.051-.013-.1-.031-.147-.045l-.07-.026-.036-.012-.033-.015c-.022-.01-.046-.018-.069-.027l-.066-.032c-.046-.02-.088-.045-.133-.069a1.917,1.917,0,0,1-.511-.418c-.037-.048-.08-.094-.117-.146l-.11-.16-.1-.174c-.032-.06-.062-.129-.093-.194a5.108,5.108,0,0,1-.292-.825c-.038-.141-.071-.284-.1-.428l.013-.05.014-.058.01-.052.019-.1.076-.413.307-1.651.613-3.3-1.081,3.194-.54,1.6-.135.4-.034.1c-.005.016-.011.034-.017.049l-.017.042-.069.168a2.394,2.394,0,0,1-1.627,1.3,2.3,2.3,0,0,1-.69.053l-.085-.006c-.029,0-.057-.009-.085-.013l-.084-.013a.676.676,0,0,1-.085-.015c-.056-.015-.115-.024-.168-.043a1.628,1.628,0,0,1-.161-.052,1.811,1.811,0,0,1-.942-.761,2.416,2.416,0,0,1-.264-.584,3.343,3.343,0,0,1-.122-.508,2.879,2.879,0,0,0,.38-.487,2.5,2.5,0,0,0,.152-.271l.067-.14c.012-.025.019-.043.027-.063l.024-.059.194-.468.388-.936,2.909-7.023q1.385.772,2.825,1.433,1.833.842,3.735,1.516.949.338,1.914.633c.643.194,1.289.378,1.944.532-.637-.207-1.262-.443-1.882-.689s-1.231-.509-1.835-.784q-1.815-.822-3.535-1.8a34.688,34.688,0,0,1-6.32-4.527,21.547,21.547,0,0,1-4.611-5.847l-.1-.2c-.035-.067-.069-.135-.1-.2l-.194-.41c-.063-.137-.12-.276-.18-.414-.03-.07-.062-.138-.089-.208l-.081-.21-.081-.209-.041-.1-.037-.106-.146-.423c-.047-.141-.087-.285-.131-.427l-.064-.213-.056-.216a15.654,15.654,0,0,1-.513-3.491l0,.073q.3.058.6.12c.567.12,1.128.251,1.668.4l.107.031,3.538,1.591.5-1.279c1.149,1.256,3.051,3.257,5.227,5.237,4.368,3.973,7.728,5.968,10.226,6.064h2.5c2.5-.1,5.858-2.091,10.226-6.064,2.176-1.98,4.077-3.981,5.226-5.237l.5,1.279,3.538-1.591.107-.031c.539-.149,1.1-.28,1.668-.4q.3-.062.6-.12c0-.024,0-.049,0-.073a15.71,15.71,0,0,1-.513,3.491l-.056.216-.064.213c-.044.142-.085.286-.131.427l-.147.423-.036.106-.041.1-.081.209-.082.21c-.027.07-.059.138-.088.208-.06.138-.118.277-.18.414l-.194.41c-.032.068-.066.136-.1.2l-.1.2a21.566,21.566,0,0,1-4.611,5.847,34.729,34.729,0,0,1-6.321,4.527q-1.718.972-3.534,1.8-.908.413-1.836.784c-.619.246-1.244.482-1.881.689.654-.154,1.3-.338,1.944-.532s1.281-.408,1.914-.633q1.9-.673,3.735-1.516,1.437-.661,2.825-1.433l2.909,7.023.388.936.194.468.024.059c.008.02.015.038.027.063l.067.14a2.483,2.483,0,0,0,.151.271,2.939,2.939,0,0,0,.381.487,3.343,3.343,0,0,1-.122.508,2.5,2.5,0,0,1-.264.584,1.814,1.814,0,0,1-.942.761,1.628,1.628,0,0,1-.161.052c-.053.019-.112.028-.169.043a.694.694,0,0,1-.084.015l-.084.013c-.029,0-.057.01-.085.013l-.085.006a2.3,2.3,0,0,1-.691-.053,2.395,2.395,0,0,1-1.626-1.3l-.069-.168-.018-.042c-.005-.015-.011-.033-.017-.049l-.033-.1-.135-.4-.541-1.6-1.08-3.194.613,3.3.306,1.651.077.413.019.1.01.052.014.058.012.05c-.029.144-.062.287-.1.428a5.118,5.118,0,0,1-.293.825c-.031.065-.06.134-.093.194l-.1.174-.109.16c-.038.052-.08.1-.118.146a1.913,1.913,0,0,1-.51.418c-.045.024-.087.049-.133.069l-.066.032c-.024.009-.047.017-.069.027l-.034.015-.036.012-.069.026c-.05.014-.1.032-.147.045-.026.007-.051.013-.076.021s-.053.012-.079.019c-.051.015-.108.022-.162.035-.027.006-.057.009-.085.014a.581.581,0,0,1-.078.012.84.84,0,0,1-.123.012,1.089,1.089,0,0,1-.487-.088c-.019-.009-.038-.018-.058-.026a.626.626,0,0,1-.056-.031,1.269,1.269,0,0,1-.109-.069.379.379,0,0,1-.051-.04l-.05-.042c-.014-.016-.029-.031-.045-.046a.4.4,0,0,1-.044-.048c-.013-.017-.027-.034-.041-.05a.548.548,0,0,1-.037-.054c-.011-.019-.026-.036-.036-.055a.637.637,0,0,0-.03-.058l-.016-.029-.012-.031c-.008-.021-.016-.041-.025-.062s-.012-.043-.019-.065l-.01-.032-.005-.017,0-.008,0-.014c-.1-.6-.217-1.2-.346-1.8s-.264-1.194-.42-1.789-.324-1.189-.533-1.779c-.1.615-.155,1.227-.2,1.839s-.074,1.221-.089,1.83-.02,1.216-.013,1.824v.033l0,.04.007.08c.006.053.009.107.018.159l.033.159.017.079.024.078.051.156c.018.052.043.1.065.151s.044.1.072.149l.084.144a2.331,2.331,0,0,0,.213.294,4.559,4.559,0,0,1-.3.581,2.774,2.774,0,0,1-.774.832,2.157,2.157,0,0,1-1.076.356,1.3,1.3,0,0,1-.521-.06,1.353,1.353,0,0,1-.471-.265,1.339,1.339,0,0,1-.328-.442c-.009-.021-.021-.042-.028-.064l-.023-.066a1.069,1.069,0,0,1-.037-.137l-.008-.035-.008-.044-.014-.087-.029-.175-.232-1.4-.232-1.4-.225-1.4.006,1.415v3.14l0,.052a1.668,1.668,0,0,0,.02.212l.017.106c.006.036.017.07.026.1.013.051.029.1.046.15q-.181.1-.342.2c-.291.18-.541.36-.747.507l-.074.05-.035.027-.033.02c-.021.013-.042.029-.061.042a.342.342,0,0,0-.048.028l-.022.016-.024.011a.434.434,0,0,0-.047.026c-.017.007-.034.011-.05.019a.207.207,0,0,1-.05.018.458.458,0,0,0-.052.016l-.055.01-.027.007-.028,0a.376.376,0,0,0-.058.007H751.3l-.03,0c-.019,0-.04,0-.061,0l-.06-.011a.313.313,0,0,1-.06-.013.616.616,0,0,1-.061-.016,1.14,1.14,0,0,1-.117-.046.453.453,0,0,1-.058-.028l-.057-.033a.4.4,0,0,1-.053-.038.376.376,0,0,1-.055-.04.907.907,0,0,1-.1-.1l-.025-.027-.012-.014a.057.057,0,0,1-.014-.018l-.061-.1c-.079-.13-.157-.261-.232-.4-.152-.268-.294-.547-.426-.841s-.246-.6-.365-.943l.178,3.206.024.443a1.9,1.9,0,0,0,.2.186,2.36,2.36,0,0,0,.314.227c.055.035.114.063.172.093a1.324,1.324,0,0,0,.18.082,2.683,2.683,0,0,0,.777.184c.068,0,.135,0,.2,0h.1l.1-.008c.068-.007.137-.011.2-.022s.135-.027.2-.042a1.517,1.517,0,0,0,.2-.056c.065-.021.13-.043.193-.069s.123-.057.184-.087c.031-.016.061-.03.091-.047l.085-.052c.057-.036.113-.073.167-.112s.093-.076.138-.115l.067-.059.058-.06c.038-.04.075-.08.111-.122a2.477,2.477,0,0,0,.481-.912,2.286,2.286,0,0,0,.329.21,2.476,2.476,0,0,0,.928.272,3.526,3.526,0,0,0,.915-.026l.008,0a1.514,1.514,0,0,0,1.1-.8l.539-1.033a.535.535,0,0,1,.691-.224c.129.059.276.116.431.169l.017-.024a3.056,3.056,0,0,0,.983.077c.064,0,.109-.012.162-.018s.1-.013.153-.023c.1-.02.2-.04.308-.069.051-.015.1-.027.153-.044s.1-.036.153-.054a3.029,3.029,0,0,0,.361-.162l1.285-1.436c.02-.052.039-.1.055-.156.026-.091.055-.181.074-.271s.036-.18.051-.268l.028-.264c.008-.086.01-.166.014-.249,0-.054,0-.108,0-.162a3.483,3.483,0,0,0,1.428,1,3.552,3.552,0,0,0,1.056.225l.137.009c.046,0,.092,0,.138,0l.137,0a1.2,1.2,0,0,0,.137-.007c.089-.009.178-.014.269-.03s.18-.027.27-.05a3.484,3.484,0,0,0,1.051-.412,3.335,3.335,0,0,0,.558-.418l.442-.769a.5.5,0,0,1,.333-.236c.034-.062.066-.124.1-.186s.07-.142.1-.214l.043.01a3.3,3.3,0,0,0,1.336.007,3.187,3.187,0,0,0,.648-.2,2.689,2.689,0,0,0,.6-.352,2.657,2.657,0,0,0,.781-.977v-.026a.469.469,0,0,1,.148-.341,3.949,3.949,0,0,0,.185-.9l0-.024v-.059l.037.022.143.084.147.076a4.2,4.2,0,0,0,1.277.4c.056.01.112.014.169.02s.113.013.17.016c.114,0,.227.013.346.006a3.289,3.289,0,0,0,.715-.09l.18-.052.089-.028.088-.036c.059-.023.117-.047.175-.073l.168-.09.083-.047c.027-.016.052-.035.078-.053l.154-.109a1.821,1.821,0,0,0,.142-.122c.045-.042.093-.082.134-.126a3.333,3.333,0,0,0,.7-1.164,5.968,5.968,0,0,0,.274-1.2l0-.017v-.056l0-.162c.062.036.125.071.189.1a5.333,5.333,0,0,0,.748.311,5.12,5.12,0,0,0,1.636.25,4.528,4.528,0,0,0,.861-.092,3.643,3.643,0,0,0,.873-.3,3.29,3.29,0,0,0,.782-.533,3.5,3.5,0,0,0,1.032-1.781l-.21-1.516a.465.465,0,0,1,.139-.4l-.03-.119.176.016h0a.535.535,0,0,1,.307-.043q.211.031.417.052h.005a11.83,11.83,0,0,0,1.947-.235,10.23,10.23,0,0,0,1.883-.568,7.808,7.808,0,0,0,.993-.5,9.547,9.547,0,0,0,1.545-1.359c.048-.065.095-.132.14-.2.026-.038.05-.078.075-.117l.019-.03.02-.036c.014-.025.028-.048.041-.073a2.648,2.648,0,0,0,.235-.621,2.6,2.6,0,0,0-.028-1.313,2.736,2.736,0,0,0-.587-1.069l-.985-.681a.479.479,0,0,1,.218-.872,9.777,9.777,0,0,0,1.5-.363c.048-.026.1-.052.143-.079a15.665,15.665,0,0,0,1.709-1.133,9.615,9.615,0,0,0,.808-.68,6.846,6.846,0,0,0,.747-.809,4.61,4.61,0,0,0,.329-.485,2.878,2.878,0,0,0,.144-.27l.033-.069.017-.035.012-.027.012-.031c.017-.042.033-.083.047-.126s.023-.087.033-.131a1.416,1.416,0,0,0,.007-.531,1.466,1.466,0,0,0-.184-.486,1.494,1.494,0,0,0-.341-.391,1.526,1.526,0,0,0-.459-.26,1.569,1.569,0,0,0-.254-.071l-.121-.02-.241-.039-.483-.077c-.323-.053-.645-.1-.968-.154l-.777-.115.052-.042C792.07,3710.035,792.134,3709.972,792.2,3709.911Zm-83.549,6.605a9.821,9.821,0,0,1-1.5-.363q.812.459,1.651.845l.2.088c-.088.067-.176.135-.262.2-.127.1-.252.208-.376.318-.062.054-.124.11-.185.168l-.093.088-.048.047-.061.062c-.03.031-.058.063-.087.1l.985-.681A.478.478,0,0,0,708.65,3716.516Zm6.394,7.766-.015.058-.04.163c-.016.073-.036.148-.048.22a3.74,3.74,0,0,0-.056.877,3.659,3.659,0,0,0,.087.6l.211-1.516A.465.465,0,0,0,715.044,3724.282Zm71.62-.329a10.23,10.23,0,0,0,1.883-.568,7.808,7.808,0,0,0,.993-.5,7.069,7.069,0,0,1-4.828,1.3h.023A11.731,11.731,0,0,0,786.664,3723.953Zm-2.825.329.014.058.041.163c.016.073.036.148.047.22a3.686,3.686,0,0,1,.057.877,3.552,3.552,0,0,1-.088.6l-.21-1.516A.465.465,0,0,1,783.839,3724.282Zm-15.269,10a3.887,3.887,0,0,1-.478.7,3.706,3.706,0,0,1-.3.306l.442-.769A.5.5,0,0,1,768.57,3734.286Zm-6.74,2.955a2.881,2.881,0,0,1-.726.547l1.285-1.436A2.643,2.643,0,0,1,761.83,3737.241Zm-56.746-31.892-.569-.648q2.389.2,4.779.42,1.781.16,3.558.339c1.186.119,2.369.248,3.552.375s2.363.268,3.541.418l1.763.231q.88.12,1.756.253l.089.014c.121.909.287,2.094.5,3.119h0l-.382-.005-.817-.014-.817-.022q-1.633-.051-3.268-.148l-3.267-.2c-1.09-.066-2.179-.124-3.268-.166l-.817-.029-.817-.022c-.272-.008-.545-.01-.817-.015l-.408-.007-.1,0h-.043l-.034,0c-.044,0-.088-.006-.132-.009a1.719,1.719,0,0,1-.94-.417c-.033-.026-.062-.058-.092-.087l-.042-.046-.011-.011-.015-.017-.032-.038-.259-.3-.517-.594Zm-.289,6.714a.22.22,0,0,1-.049.015c-.009,0-.017,0-.022,0l.092-.025A.073.073,0,0,1,704.795,3712.063Zm3.378,2.066c-.551-.266-1.091-.54-1.594-.84-.25-.152-.5-.307-.72-.471a5.139,5.139,0,0,1-.614-.51,3.15,3.15,0,0,1-.238-.264l-.031-.038.1-.028.47-.13q.471-.129.941-.262c1-.287,1.994-.4,2.981-.658l.316,0c.272-.006.545-.007.817-.016l.817-.022.817-.029q1.633-.063,3.268-.166l3.267-.2q1.635-.094,3.268-.148l.817-.022.817-.013c.159,0,.319,0,.478-.006a8.787,8.787,0,0,0,.3,1.017l.087.24.1.237c.065.157.126.315.194.471l.211.465.052.116.057.114.114.229.078.155c-.351.044-.7.089-1.052.138-.325.044-.648.092-.972.138l-.97.145q-1.938.3-3.863.644c-1.285.226-2.565.471-3.843.721-.639.129-1.278.253-1.915.387l-.862.18-.269-.1C710.431,3715.139,709.276,3714.655,708.173,3714.129Zm3.448,1.618-.036.008c-.005,0,0,0,.005,0l.016,0Zm23.674,7.42h0L732,3730.151l-.433.918-.216.46-.027.057c-.009.019-.019.04-.026.053l-.048.087a1.524,1.524,0,0,1-.1.168,2.022,2.022,0,0,1-1.329.823,1.916,1.916,0,0,1-.784-.032,1.712,1.712,0,0,1-.362-.128,1.253,1.253,0,0,1-.293-.19,1.172,1.172,0,0,1-.224-.252,1.4,1.4,0,0,1-.161-.316,4.145,4.145,0,0,1-.147-.7l-.172-1.36.019-.031.08-.134.066-.12.533-.957,4.017-7.223h0A33.577,33.577,0,0,0,735.295,3723.167Zm-7.858-6.579.018.022c.423.529.864,1.043,1.334,1.53s.953.959,1.458,1.408,1.026.878,1.56,1.289c.038.03.078.059.116.088h0l-4.439,7.107-.582.932-.073.117-.067.1c-.041.066-.092.126-.139.188-.023.032-.051.06-.076.09s-.05.06-.079.087c-.056.055-.108.113-.169.164a3.188,3.188,0,0,1-.374.287l-.1.061-.051.031-.052.027-.1.055-.108.049a2.949,2.949,0,0,1-.907.239,1.108,1.108,0,0,1-.117.008c-.039,0-.078.006-.117.006-.076,0-.155,0-.228-.007a2.09,2.09,0,0,1-.419-.072,1.343,1.343,0,0,1-.625-.4,2.073,2.073,0,0,1-.377-.728,4.6,4.6,0,0,1-.154-.877l.062-1.49,0,0,6.943-7.919-.223-.191-7.75,7.228-.242.226-.061.056c-.02.019-.041.039-.057.052l-.1.091a3.48,3.48,0,0,1-.941.557,3.6,3.6,0,0,1-.519.158,3.336,3.336,0,0,1-1.057.057,2.018,2.018,0,0,1-.873-.281,1.247,1.247,0,0,1-.44-.585,1.589,1.589,0,0,1-.147-.778c.009-.117.165-1.715.2-2.114.07-.039.14-.08.208-.122s.141-.09.211-.135l.182-.125,1.458-1,2.916-2Zm-.249-.32-5.349,3.11-3.067,1.783-1.534.892-.191.112c-.057.03-.113.062-.17.091-.114.058-.23.114-.349.162a4.439,4.439,0,0,1-1.492.328c-.063,0-.127,0-.19,0l-.191,0c-.064,0-.123-.006-.192-.012s-.135-.012-.2-.019a10.079,10.079,0,0,1-1.623-.312,8.35,8.35,0,0,1-1.505-.57,4.8,4.8,0,0,1-1.211-.833,2.842,2.842,0,0,1-.415-.5c-.028-.044-.054-.088-.078-.133-.013-.022-.024-.045-.036-.067l-.008-.016,0-.011-.009-.022a.741.741,0,0,1-.047-.182.729.729,0,0,1,.049-.361.745.745,0,0,1,.214-.29l.121-.1c.047-.038.1-.077.148-.116.1-.077.205-.154.313-.228.215-.149.439-.292.664-.423a6.592,6.592,0,0,1,.666-.339,2.368,2.368,0,0,1,.278-.1h.006a.372.372,0,0,1-.066,0l0-.045a1.776,1.776,0,0,0,.207-.005c.042,0,.084-.009.126-.016l.062-.011.05-.011.059-.015.119-.029.948-.231c.632-.153,1.261-.317,1.892-.474,1.26-.325,2.518-.654,3.772-1s2.505-.7,3.752-1.079l.933-.285c.311-.1.622-.193.932-.293q.619-.2,1.235-.4l.191.323c.042.073.087.145.134.217l.137.214C726.558,3715.407,726.864,3715.845,727.188,3716.268Zm4.732-11.221a.46.46,0,0,0-.043.228.379.379,0,0,1,0,.047.379.379,0,0,0,0-.047.46.46,0,0,1,.043-.228.519.519,0,0,1,.379-.279A.519.519,0,0,0,731.92,3705.047Zm39.117,26.05a4.139,4.139,0,0,1-.147.7,1.4,1.4,0,0,1-.161.316,1.2,1.2,0,0,1-.224.252,1.253,1.253,0,0,1-.293.19,1.732,1.732,0,0,1-.362.128,1.921,1.921,0,0,1-.785.032,2.02,2.02,0,0,1-1.328-.823,1.39,1.39,0,0,1-.1-.168l-.048-.087c-.007-.013-.017-.034-.026-.053l-.027-.057-.217-.46-.433-.918-3.292-6.984h0a33.737,33.737,0,0,0,2.906-1.9h0l4.017,7.223.533.957.066.12.08.134.019.031Zm10.539-4.756a1.241,1.241,0,0,1-.44.585,2.013,2.013,0,0,1-.872.281,3.343,3.343,0,0,1-1.058-.057,3.681,3.681,0,0,1-.519-.158,3.825,3.825,0,0,1-.491-.241,3.78,3.78,0,0,1-.449-.316l-.1-.091c-.016-.013-.038-.033-.058-.052l-.06-.056-.242-.226-7.75-7.228-.223.191,6.942,7.919.005,0,.062,1.49a4.6,4.6,0,0,1-.154.877,2.071,2.071,0,0,1-.377.728,1.348,1.348,0,0,1-.625.4,2.09,2.09,0,0,1-.419.072c-.073.009-.152,0-.229.007-.038,0-.077,0-.116-.006a1.09,1.09,0,0,1-.117-.008,2.955,2.955,0,0,1-.908-.239l-.108-.049-.1-.055-.053-.027-.05-.031-.1-.061a3.188,3.188,0,0,1-.374-.287c-.061-.051-.113-.109-.17-.164-.028-.027-.052-.058-.078-.087s-.054-.058-.076-.09c-.047-.062-.1-.122-.14-.188l-.066-.1-.073-.117-.582-.932-4.44-7.107h0l.117-.088q.8-.616,1.56-1.289c.5-.449.99-.92,1.458-1.408s.911-1,1.334-1.53l.018-.022,5.1,3.487,2.916,2,1.458,1,.182.125c.069.045.139.092.21.135s.138.083.209.122c.039.4.2,2,.2,2.114A1.568,1.568,0,0,1,781.576,3726.341Zm7.983-6.277a.739.739,0,0,1-.046.182l-.01.022,0,.011-.009.016c-.012.022-.022.045-.035.067-.025.045-.051.089-.079.133a2.832,2.832,0,0,1-.414.5,4.8,4.8,0,0,1-1.211.833,8.38,8.38,0,0,1-1.505.57,10.1,10.1,0,0,1-1.623.312c-.068.007-.136.014-.2.019s-.127.008-.192.012l-.19,0c-.063,0-.127,0-.191,0a4.44,4.44,0,0,1-1.491-.328c-.119-.048-.235-.1-.35-.162-.057-.029-.112-.061-.169-.091l-.192-.112-1.533-.892-3.067-1.783-5.349-3.11c.324-.423.63-.861.919-1.31l.137-.214c.047-.072.091-.144.134-.217l.191-.323q.615.208,1.234.4c.31.1.622.2.932.293l.934.285c1.247.377,2.5.734,3.752,1.079s2.512.677,3.772,1c.63.157,1.26.321,1.892.474l.948.231.118.029.06.015.05.011.062.011c.041.007.083.012.126.016a1.771,1.771,0,0,0,.207.005l0,.045a.361.361,0,0,1-.065,0h.006a2.433,2.433,0,0,1,.278.1,6.574,6.574,0,0,1,.665.339c.226.131.45.274.665.423.107.074.212.151.313.228l.148.116.12.1a.726.726,0,0,1,.214.29A.719.719,0,0,1,789.559,3720.064Zm-2.3-4.317.015,0,.016,0c.008,0,.009,0,0,0Zm6.9-3.671c-.006,0-.013,0-.022,0a.22.22,0,0,1-.049-.015.1.1,0,0,1-.022-.012Zm-1.764-.49q.469.134.94.262l.471.13.1.028c-.009.013-.019.025-.03.038a3.168,3.168,0,0,1-.239.264,5.139,5.139,0,0,1-.614.51c-.224.164-.469.319-.719.471-.5.3-1.044.574-1.594.84-1.1.526-2.258,1.01-3.417,1.465l-.269.1-.862-.18c-.637-.134-1.277-.258-1.915-.387-1.279-.25-2.559-.5-3.843-.721s-2.572-.446-3.864-.644l-.969-.145c-.324-.046-.648-.094-.972-.138-.35-.049-.7-.094-1.052-.138l.077-.155.114-.229.057-.114.053-.116.21-.465c.068-.156.13-.314.2-.471l.1-.237.087-.24a8.775,8.775,0,0,0,.3-1.017c.159,0,.318,0,.477.006l.817.013.817.022q1.635.051,3.268.148l3.268.2q1.633.1,3.268.166l.817.029.817.022c.272.009.544.01.817.016l.316,0C790.4,3711.187,791.4,3711.3,792.4,3711.586Zm-.669-3.864-.517.594-.259.3-.032.038-.015.017-.011.011-.042.046c-.031.029-.059.061-.092.087a1.722,1.722,0,0,1-.94.417c-.044,0-.088.009-.133.009l-.033,0h-.044l-.1,0-.408.007c-.273,0-.545.007-.817.015l-.817.022-.817.029c-1.089.042-2.179.1-3.268.166l-3.268.2q-1.634.1-3.268.148l-.817.022-.817.014-.381.005h0c.215-1.025.381-2.21.5-3.119l.088-.014q.876-.134,1.757-.253l1.763-.231q1.767-.225,3.541-.418c1.183-.127,2.366-.256,3.551-.375s2.372-.232,3.559-.339q2.387-.22,4.778-.42l-.568.648Zm-1.493,8.794a9.777,9.777,0,0,0,1.5-.363q-.81.459-1.65.845l-.2.088c.088.067.175.135.262.2.127.1.252.208.376.318.062.054.123.11.185.168l.092.088.049.047.06.062q.045.047.087.1l-.985-.681A.479.479,0,0,1,790.233,3716.516Z" fill="#fff"/>
        <g id="Group_438" data-name="Group 438" opacity="0.3">
          <path id="Path_2792" data-name="Path 2792" d="M757.03,3736.72c-.028-.048-.048-.1-.072-.149s-.047-.1-.065-.151l-.051-.156-.024-.078-.017-.079-.033-.159c-.009-.052-.012-.106-.018-.159l-.007-.08,0-.04v-.033c0-.088,0-.176,0-.263-.823-1.587-3.135-5.81-4.743-6.471,0,0,1.952,5.753,1.613,6.683a2.3,2.3,0,0,0-.1.722l.207,1.245.029.175.014.087.008.044.008.035a1.069,1.069,0,0,0,.037.137l.023.066c.007.022.019.043.028.064a1.339,1.339,0,0,0,.328.442,1.353,1.353,0,0,0,.471.265,1.3,1.3,0,0,0,.521.06,2.157,2.157,0,0,0,1.076-.356,2.774,2.774,0,0,0,.774-.832,4.559,4.559,0,0,0,.3-.581,2.331,2.331,0,0,1-.213-.294Z" fill="#fff"/>
          <path id="Path_2793" data-name="Path 2793" d="M750.6,3732.84a26.146,26.146,0,0,0-1.126,4.088c.113.319.221.612.347.891s.274.573.426.841c.075.135.153.266.232.4l.061.1a.057.057,0,0,0,.014.018l.012.014.025.027a.907.907,0,0,0,.1.1.376.376,0,0,0,.055.04.4.4,0,0,0,.053.038l.057.033a.453.453,0,0,0,.058.028,1.14,1.14,0,0,0,.117.046.616.616,0,0,0,.061.016.313.313,0,0,0,.06.013l.06.011c.021,0,.042,0,.061,0l.03,0h.088a.376.376,0,0,1,.058-.007l.028,0,.027-.007.055-.01a.458.458,0,0,1,.052-.016.207.207,0,0,0,.05-.018c.016-.008.033-.012.05-.019a.434.434,0,0,1,.047-.026l.024-.011.022-.016a.342.342,0,0,1,.048-.028c.019-.013.04-.029.061-.042l.033-.02.035-.027.074-.05c.206-.148.456-.327.747-.507l.159-.095C752.8,3737.112,752.271,3733.933,750.6,3732.84Z" fill="#fff"/>
          <path id="Path_2794" data-name="Path 2794" d="M787.8,3711.836c-3.781.753-9.676,2-13.541-.051l0,.01c-.065.157-.127.315-.2.471l-.21.465-.053.116-.057.114-.114.229-.077.155c.351.044.7.089,1.052.138.324.044.648.092.972.138l.969.145q1.938.3,3.864.644c1.284.226,2.564.471,3.843.721.638.129,1.278.253,1.915.387l.862.18.269-.1c1.159-.455,2.313-.939,3.417-1.465.55-.266,1.091-.54,1.594-.84.25-.152.495-.307.719-.471l.014-.01A6.388,6.388,0,0,0,787.8,3711.836Z" fill="#fff"/>
          <path id="Path_2795" data-name="Path 2795" d="M761.279,3725.139l-.6-.435-.09.043a.864.864,0,0,1-.113.508c-.208.424.2,2.185.594,3.658l-.159-.855,1.08,3.194.541,1.6.135.4.033.1c.006.016.012.034.017.049l.018.042.069.168a2.395,2.395,0,0,0,1.626,1.3,2.3,2.3,0,0,0,.691.053l.085-.006c.028,0,.056-.009.085-.013l.084-.013a.694.694,0,0,0,.084-.015c.057-.015.116-.024.169-.043a1.628,1.628,0,0,0,.161-.052,1.814,1.814,0,0,0,.942-.761,2.5,2.5,0,0,0,.264-.584,3.317,3.317,0,0,0,.116-.476C766.121,3732.644,762.406,3730.94,761.279,3725.139Z" fill="#fff"/>
          <path id="Path_2796" data-name="Path 2796" d="M756.931,3726.656c-.261.041-.053,2.27.095,3.595.006-.036.011-.072.017-.108.209.59.376,1.184.533,1.779s.295,1.192.42,1.789.242,1.2.346,1.8l0,.014,0,.008.005.017.01.032c.007.022.01.044.019.065s.017.041.025.062l.012.031.016.029a.637.637,0,0,1,.03.058c.01.019.025.036.036.055a.548.548,0,0,0,.037.054c.014.016.028.033.041.05a.4.4,0,0,0,.044.048c.016.015.031.03.045.046l.05.042a.379.379,0,0,0,.051.04,1.269,1.269,0,0,0,.109.069.626.626,0,0,0,.056.031c.02.008.039.017.058.026a1.089,1.089,0,0,0,.487.088.84.84,0,0,0,.123-.012.581.581,0,0,0,.078-.012c.028,0,.058-.008.085-.014.054-.013.111-.02.162-.035.026-.007.054-.011.079-.019s.05-.014.076-.021c.051-.013.1-.031.147-.045l.069-.026.036-.012.034-.015c.022-.01.045-.018.069-.027l.066-.032c.046-.02.088-.045.133-.069a1.913,1.913,0,0,0,.51-.418c.038-.048.08-.094.118-.146l.109-.16.1-.174c.033-.06.062-.129.093-.194s.063-.143.092-.215a.957.957,0,0,0-.036-.1C760.8,3732.72,758.032,3726.483,756.931,3726.656Z" fill="#fff"/>
          <path id="Path_2797" data-name="Path 2797" d="M791.023,3704.99a40.362,40.362,0,0,1-16,3.84c-.013.077-.027.155-.04.232l5.234.613,3.162-.194c1.089-.066,2.179-.124,3.268-.166l.817-.029.817-.022c.272-.008.544-.01.817-.015l.408-.007.1,0h.044l.033,0c.045,0,.089-.006.133-.009a1.722,1.722,0,0,0,.94-.417c.033-.026.061-.058.092-.087l.042-.046.011-.011.015-.017.032-.038.259-.3.517-.594,2.073-2.373.568-.648Q792.7,3704.839,791.023,3704.99Z" fill="#fff"/>
          <path id="Path_2798" data-name="Path 2798" d="M789.3,3719.413l-.12-.1-.148-.116c-.089-.068-.181-.135-.276-.2-1.653.355-7.6,1.122-16.583-3.378q-.23.331-.474.651l5.349,3.11,3.067,1.784,1.533.891.192.112c.057.03.112.062.169.091.115.058.231.114.35.162a4.44,4.44,0,0,0,1.491.328c.064,0,.128,0,.191,0l.19,0c.065,0,.124-.006.192-.012s.136-.012.2-.019a10.1,10.1,0,0,0,1.623-.312,8.38,8.38,0,0,0,1.505-.57,4.8,4.8,0,0,0,1.211-.833,2.832,2.832,0,0,0,.414-.5c.028-.044.054-.088.079-.133.013-.022.023-.045.035-.067l.009-.016,0-.011.01-.022a.739.739,0,0,0,.046-.182.719.719,0,0,0-.049-.361A.726.726,0,0,0,789.3,3719.413Z" fill="#fff"/>
          <path id="Path_2799" data-name="Path 2799" d="M781.6,3724.248c-1.012-.053-3.349-.286-4.544-1.323a38.439,38.439,0,0,0-6.926-4.821l-.034.036q-.387.4-.79.79l.028.024.2-.172,7.75,7.228.242.226.06.056c.02.019.042.039.058.052l.1.091a3.78,3.78,0,0,0,.449.316,3.825,3.825,0,0,0,.491.241,3.681,3.681,0,0,0,.519.158,3.343,3.343,0,0,0,1.058.057,2.013,2.013,0,0,0,.872-.281,1.241,1.241,0,0,0,.44-.585,1.568,1.568,0,0,0,.147-.778C781.718,3725.489,781.654,3724.827,781.6,3724.248Z" fill="#fff"/>
          <path id="Path_2800" data-name="Path 2800" d="M767.435,3720.7l-.136-.042c-.074.059-.148.118-.223.175l-.117.088,4.44,7.107.582.932.073.117.066.1c.042.066.093.126.14.188.022.032.051.06.076.09s.05.06.078.087c.057.055.109.113.17.164a3.188,3.188,0,0,0,.374.287l.1.061.05.031.053.027.1.055.108.049a2.955,2.955,0,0,0,.908.239,1.09,1.09,0,0,0,.117.008c.039,0,.078.006.116.006.077,0,.156,0,.229-.007a2.09,2.09,0,0,0,.419-.072,1.348,1.348,0,0,0,.625-.4,2.071,2.071,0,0,0,.377-.728,4.6,4.6,0,0,0,.154-.877l-.019-.442C774.908,3727.585,771.106,3726.146,767.435,3720.7Z" fill="#fff"/>
          <path id="Path_2801" data-name="Path 2801" d="M764.494,3722.621h0c-.3.187-.6.368-.9.546l3.292,6.984.433.918.217.46.027.057c.009.019.019.04.026.053l.048.087a1.39,1.39,0,0,0,.1.168,2.02,2.02,0,0,0,1.328.823,1.921,1.921,0,0,0,.785-.032,1.732,1.732,0,0,0,.362-.128,1.253,1.253,0,0,0,.293-.19,1.2,1.2,0,0,0,.224-.252,1.4,1.4,0,0,0,.161-.316,4.139,4.139,0,0,0,.147-.7l.141-1.117C770.208,3729.233,766.221,3726.034,764.494,3722.621Z" fill="#fff"/>
          <path id="Path_2802" data-name="Path 2802" d="M746.889,3728.9c-1.608.661-3.92,4.884-4.743,6.471,0,.087,0,.175,0,.263v.033l0,.04-.006.08c-.006.053-.009.107-.019.159l-.032.159-.018.079-.024.078-.051.156c-.017.052-.042.1-.064.151s-.044.1-.072.149l-.084.144a2.446,2.446,0,0,1-.213.294,4.675,4.675,0,0,0,.3.581,2.787,2.787,0,0,0,.774.832,2.157,2.157,0,0,0,1.077.356,1.3,1.3,0,0,0,.521-.06,1.354,1.354,0,0,0,.471-.265,1.323,1.323,0,0,0,.327-.442c.009-.021.021-.042.029-.064l.022-.066a1.072,1.072,0,0,0,.038-.137l.008-.035.007-.044.015-.087.029-.175.206-1.245a2.274,2.274,0,0,0-.1-.722C744.937,3734.655,746.889,3728.9,746.889,3728.9Z" fill="#fff"/>
          <path id="Path_2803" data-name="Path 2803" d="M745.928,3738.639l.159.095c.291.18.54.359.746.507l.074.05.036.027.032.02c.021.013.043.029.061.042a.256.256,0,0,1,.048.028l.022.016.025.011a.434.434,0,0,1,.047.026c.016.007.034.011.05.019a.206.206,0,0,0,.05.018.458.458,0,0,1,.052.016l.054.01.028.007.028,0a.35.35,0,0,1,.057.007h.089l.029,0c.02,0,.041,0,.061,0l.06-.011a.307.307,0,0,0,.061-.013c.019-.006.042-.008.061-.016a1.235,1.235,0,0,0,.117-.046.635.635,0,0,0,.058-.028l.057-.033a.4.4,0,0,0,.053-.038.322.322,0,0,0,.054-.04.83.83,0,0,0,.1-.1l.024-.027.013-.014a.076.076,0,0,0,.014-.018l.06-.1c.08-.13.158-.261.233-.4.152-.268.293-.547.425-.841s.235-.572.347-.891a26.022,26.022,0,0,0-1.126-4.088C746.611,3733.933,746.086,3737.112,745.928,3738.639Z" fill="#fff"/>
          <path id="Path_2804" data-name="Path 2804" d="M711.859,3715.7l.862-.18c.637-.134,1.276-.258,1.915-.387,1.278-.25,2.558-.5,3.843-.721s2.571-.446,3.863-.644l.97-.145c.324-.046.647-.094.972-.138.35-.049.7-.094,1.052-.138l-.078-.155-.114-.229-.057-.114-.052-.116-.211-.465c-.068-.156-.129-.314-.194-.471l0-.01c-3.866,2.054-9.76.8-13.541.051a6.388,6.388,0,0,0-5.239.972l.013.01c.224.164.47.319.72.471.5.3,1.043.574,1.594.84,1.1.526,2.258,1.01,3.417,1.465Z" fill="#fff"/>
          <path id="Path_2805" data-name="Path 2805" d="M737.818,3728.913c.4-1.473.8-3.234.593-3.658a.862.862,0,0,1-.112-.508l-.09-.043-.6.435c-1.128,5.8-4.843,7.505-5.827,7.859a3.076,3.076,0,0,0,.116.476,2.416,2.416,0,0,0,.264.584,1.811,1.811,0,0,0,.942.761,1.628,1.628,0,0,0,.161.052c.053.019.112.028.168.043a.676.676,0,0,0,.085.015l.084.013c.028,0,.056.01.085.013l.085.006a2.3,2.3,0,0,0,.69-.053,2.394,2.394,0,0,0,1.627-1.3l.069-.168.017-.042c.006-.015.012-.033.017-.049l.034-.1.135-.4.54-1.6,1.081-3.194Z" fill="#fff"/>
          <path id="Path_2806" data-name="Path 2806" d="M741.857,3730.251c.147-1.325.356-3.554.094-3.595-1.1-.173-3.869,6.064-4.689,7.971-.013.033-.025.065-.035.1.029.072.059.144.091.215s.061.134.093.194l.1.174.11.16c.037.052.08.1.117.146a1.917,1.917,0,0,0,.511.418c.045.024.087.049.133.069l.066.032c.023.009.047.017.069.027l.033.015.036.012.07.026c.05.014.1.032.147.045.025.007.051.013.076.021s.052.012.078.019c.052.015.108.022.163.035.027.006.057.009.085.014a.581.581,0,0,0,.078.012.84.84,0,0,0,.123.012,1.085,1.085,0,0,0,.486-.088l.059-.026a.626.626,0,0,0,.056-.031,1.119,1.119,0,0,0,.108-.069.284.284,0,0,0,.051-.04l.051-.042c.014-.016.029-.031.044-.046a.334.334,0,0,0,.044-.048l.042-.05c.015-.017.024-.037.037-.054s.026-.036.035-.055.02-.039.031-.058l.016-.029.011-.031c.008-.021.017-.041.026-.062s.011-.043.018-.065l.01-.032,0-.017,0-.008,0-.014c.1-.6.216-1.2.345-1.8s.265-1.194.421-1.789.324-1.189.533-1.779C741.846,3730.179,741.851,3730.215,741.857,3730.251Z" fill="#fff"/>
          <path id="Path_2807" data-name="Path 2807" d="M707.674,3708.316l.259.3.032.038.015.017.011.011.042.046c.03.029.059.061.092.087a1.719,1.719,0,0,0,.94.417c.044,0,.088.009.132.009l.034,0h.043l.1,0,.408.007c.272,0,.545.007.817.015l.817.022.817.029c1.089.042,2.178.1,3.268.166l3.162.194,5.234-.613c-.014-.077-.027-.155-.04-.232a40.362,40.362,0,0,1-16-3.84q-1.671-.15-3.345-.289l.569.648,2.073,2.373Z" fill="#fff"/>
          <path id="Path_2808" data-name="Path 2808" d="M718.772,3721.162l3.067-1.784,5.349-3.11q-.244-.32-.475-.651c-8.98,4.5-14.929,3.733-16.583,3.378-.094.067-.186.134-.275.2-.051.039-.1.078-.148.116l-.121.1a.745.745,0,0,0-.214.29.729.729,0,0,0-.049.361.741.741,0,0,0,.047.182l.009.022,0,.011.008.016c.012.022.023.045.036.067.024.045.05.089.078.133a2.842,2.842,0,0,0,.415.5,4.8,4.8,0,0,0,1.211.833,8.35,8.35,0,0,0,1.505.57,10.079,10.079,0,0,0,1.623.312c.068.007.136.014.2.019s.128.008.192.012l.191,0c.063,0,.127,0,.19,0a4.439,4.439,0,0,0,1.492-.328c.119-.048.235-.1.349-.162.057-.029.113-.061.17-.091l.191-.112Z" fill="#fff"/>
          <path id="Path_2809" data-name="Path 2809" d="M729.55,3718.954l.029-.024q-.4-.387-.79-.79l-.034-.036a38.4,38.4,0,0,0-6.926,4.821c-1.2,1.037-3.532,1.27-4.544,1.323-.056.579-.12,1.241-.126,1.315a1.589,1.589,0,0,0,.147.778,1.247,1.247,0,0,0,.44.585,2.018,2.018,0,0,0,.873.281,3.336,3.336,0,0,0,1.057-.057,3.6,3.6,0,0,0,.519-.158,3.48,3.48,0,0,0,.941-.557l.1-.091c.016-.013.037-.033.057-.052l.061-.056.242-.226,7.75-7.228Z" fill="#fff"/>
          <path id="Path_2810" data-name="Path 2810" d="M731.807,3720.837c-.075-.057-.149-.116-.224-.175l-.136.042c-3.67,5.442-7.473,6.881-8.865,7.241l-.018.442a4.6,4.6,0,0,0,.154.877,2.073,2.073,0,0,0,.377.728,1.343,1.343,0,0,0,.625.4,2.09,2.09,0,0,0,.419.072c.073.009.152,0,.228.007.039,0,.078,0,.117-.006a1.108,1.108,0,0,0,.117-.008,2.949,2.949,0,0,0,.907-.239l.108-.049.1-.055.052-.027.051-.031.1-.061a3.188,3.188,0,0,0,.374-.287c.061-.051.113-.109.169-.164.029-.027.052-.058.079-.087s.053-.058.076-.09c.047-.062.1-.122.139-.188l.067-.1.073-.117.582-.932,4.439-7.107C731.885,3720.9,731.845,3720.867,731.807,3720.837Z" fill="#fff"/>
          <path id="Path_2811" data-name="Path 2811" d="M735.294,3723.167c-.3-.178-.606-.359-.905-.546h0c-1.727,3.413-5.715,6.612-6.684,7.359l.141,1.117a4.145,4.145,0,0,0,.147.7,1.4,1.4,0,0,0,.161.316,1.172,1.172,0,0,0,.224.252,1.253,1.253,0,0,0,.293.19,1.712,1.712,0,0,0,.362.128,1.916,1.916,0,0,0,.784.032,2.022,2.022,0,0,0,1.329-.823,1.524,1.524,0,0,0,.1-.168l.048-.087c.007-.013.017-.034.026-.053l.027-.057.216-.46.433-.918Z" fill="#fff"/>
        </g>
      </g>
      <g id="Group_441" data-name="Group 441">
        <g id="Group_440" data-name="Group 440">
          <text id="شـــركة_الحصــــــيف" data-name="شـــركة الحصــــــيف" transform="translate(726.438 3749.406)" fill="#fff" font-size="7.767" font-family="AraHamahSahetAlAssi-Regular, Ara Hamah Sahet AlAssi"><tspan x="0" y="0">شـــركة الحصــــــيف</tspan></text>
        </g>
        <text id="العالمية_للأنشطة_المحدودة" data-name="العالمية للأنشطة المحدودة" transform="translate(726.563 3756.086)" fill="#fff" font-size="5.957" font-family="AraHamahSahetAlAssi-Regular, Ara Hamah Sahet AlAssi"><tspan x="0" y="0">العالمية للأنشطة المحدودة</tspan></text>
      </g>
    </g>
  </g>
</svg>
